<svg width="33" height="33" viewBox="0 0 33 33" fill="none" xmlns="http://www.w3.org/2000/svg">
<path d="M28.8733 13.6024H26.1C26.3133 14.4557 26.5266 15.4157 26.5266 16.4824C26.5266 22.0291 22.0466 26.5091 16.5 26.5091C10.9533 26.5091 6.47331 22.0291 6.47331 16.4824C6.47331 10.9357 10.9533 6.45573 16.5 6.45573C17.5666 6.45573 18.5266 6.5624 19.4866 6.8824V4.10906C18.5266 3.89573 17.5666 3.78906 16.5 3.78906C9.45997 3.78906 3.80664 9.4424 3.80664 16.4824C3.80664 23.5224 9.45997 29.1757 16.5 29.1757C23.54 29.1757 29.1933 23.5224 29.1933 16.4824C29.1933 15.5224 29.0866 14.5624 28.8733 13.6024Z" fill="#7F7F7F"/>
<path d="M24.18 12.1094H26.1V9.01604H29.1934V7.09604H26.1V4.10938H24.18V7.09604H21.1934V9.01604H24.18V12.1094Z" fill="#7F7F7F"/>
<path d="M13.3006 21.496V11.6826H9.14062V13.496H11.0606V21.496H13.3006Z" fill="#7F7F7F"/>
<path d="M17.1399 11.8962C16.6066 12.1095 16.1799 12.4295 15.8599 12.8562C15.5399 13.2828 15.4333 13.8162 15.4333 14.3495C15.4333 14.7762 15.5399 15.2028 15.7533 15.5228C15.9666 15.8428 16.1799 16.1628 16.6066 16.3762C16.1799 16.5895 15.7533 16.9095 15.5399 17.3362C15.3266 17.7628 15.1133 18.1895 15.1133 18.7228C15.1133 19.3628 15.3266 19.8962 15.6466 20.3228C15.9666 20.7495 16.4999 21.1762 17.0333 21.3895C17.6733 21.6028 18.4199 21.7095 19.1666 21.7095C20.02 21.7095 20.66 21.6028 21.3 21.3895C21.94 21.1762 22.3666 20.7495 22.7933 20.3228C23.1133 19.8962 23.3266 19.3628 23.3266 18.7228C23.3266 18.1895 23.22 17.7628 22.9 17.3362C22.6866 16.9095 22.26 16.5895 21.8333 16.3762C22.1533 16.1628 22.4733 15.8428 22.6866 15.5228C22.9 15.2028 23.0066 14.7762 23.0066 14.3495C23.0066 13.8162 22.9 13.2828 22.58 12.8562C22.26 12.4295 21.8333 12.1095 21.3 11.8962C20.7666 11.6828 20.02 11.5762 19.2733 11.5762C18.3133 11.5762 17.6733 11.6828 17.1399 11.8962ZM20.4466 19.5762C20.1266 19.7895 19.7 20.0028 19.0599 20.0028C18.5266 20.0028 18.1 19.8962 17.78 19.5762C17.46 19.3628 17.2466 18.9362 17.2466 18.5095C17.2466 18.0828 17.46 17.7628 17.78 17.4428C18.1 17.2295 18.5266 17.0162 19.0599 17.0162C19.5933 17.0162 20.1266 17.1228 20.4466 17.4428C20.7666 17.6562 20.98 18.0828 20.98 18.5095C20.98 19.0428 20.7666 19.3628 20.4466 19.5762ZM20.66 14.4562C20.66 14.7762 20.5533 15.0962 20.2333 15.3095C19.9133 15.5228 19.5933 15.6295 19.1666 15.6295C18.7399 15.6295 18.3133 15.5228 18.0999 15.3095C17.7799 15.0962 17.6733 14.7762 17.6733 14.4562C17.6733 14.0295 17.7799 13.8162 18.0999 13.6028C18.4199 13.3895 18.7399 13.2828 19.1666 13.2828C19.5933 13.2828 20.02 13.3895 20.2333 13.6028C20.4466 13.7095 20.66 14.0295 20.66 14.4562Z" fill="#7F7F7F"/>
</svg>
