<svg width="32" height="32" viewBox="0 0 32 32" fill="none" xmlns="http://www.w3.org/2000/svg">
<path d="M28.3733 13.1201H25.6C25.8133 13.9734 26.0266 14.9334 26.0266 16.0001C26.0266 21.5468 21.5466 26.0268 16 26.0268C10.4533 26.0268 5.97331 21.5468 5.97331 16.0001C5.97331 10.4534 10.4533 5.97343 16 5.97343C17.0666 5.97343 18.0266 6.0801 18.9866 6.4001V3.62676C18.0266 3.41343 17.0666 3.30676 16 3.30676C8.95997 3.30676 3.30664 8.9601 3.30664 16.0001C3.30664 23.0401 8.95997 28.6934 16 28.6934C23.04 28.6934 28.6933 23.0401 28.6933 16.0001C28.6933 15.0401 28.5866 14.0801 28.3733 13.1201Z" fill="#7F7F7F"/>
<path d="M23.68 11.6271H25.6V8.53374H28.6934V6.61374H25.6V3.62708H23.68V6.61374H20.6934V8.53374H23.68V11.6271Z" fill="#7F7F7F"/>
<path d="M12.8006 21.0137V11.2003H8.64062V13.0137H10.5606V21.0137H12.8006Z" fill="#7F7F7F"/>
<path d="M16.6399 11.4139C16.1066 11.6272 15.6799 11.9472 15.3599 12.3739C15.0399 12.8005 14.9333 13.3339 14.9333 13.8672C14.9333 14.2939 15.0399 14.7205 15.2533 15.0405C15.4666 15.3605 15.6799 15.6805 16.1066 15.8939C15.6799 16.1072 15.2533 16.4272 15.0399 16.8539C14.8266 17.2805 14.6133 17.7072 14.6133 18.2405C14.6133 18.8805 14.8266 19.4139 15.1466 19.8405C15.4666 20.2672 15.9999 20.6939 16.5333 20.9072C17.1733 21.1205 17.9199 21.2272 18.6666 21.2272C19.52 21.2272 20.16 21.1205 20.8 20.9072C21.44 20.6939 21.8666 20.2672 22.2933 19.8405C22.6133 19.4139 22.8266 18.8805 22.8266 18.2405C22.8266 17.7072 22.72 17.2805 22.4 16.8539C22.1866 16.4272 21.76 16.1072 21.3333 15.8939C21.6533 15.6805 21.9733 15.3605 22.1866 15.0405C22.4 14.7205 22.5066 14.2939 22.5066 13.8672C22.5066 13.3339 22.4 12.8005 22.08 12.3739C21.76 11.9472 21.3333 11.6272 20.8 11.4139C20.2666 11.2005 19.52 11.0939 18.7733 11.0939C17.8133 11.0939 17.1733 11.2005 16.6399 11.4139ZM19.9466 19.0939C19.6266 19.3072 19.2 19.5205 18.5599 19.5205C18.0266 19.5205 17.6 19.4139 17.28 19.0939C16.96 18.8805 16.7466 18.4539 16.7466 18.0272C16.7466 17.6005 16.96 17.2805 17.28 16.9605C17.6 16.7472 18.0266 16.5339 18.5599 16.5339C19.0933 16.5339 19.6266 16.6405 19.9466 16.9605C20.2666 17.1739 20.48 17.6005 20.48 18.0272C20.48 18.5605 20.2666 18.8805 19.9466 19.0939ZM20.16 13.9739C20.16 14.2939 20.0533 14.6139 19.7333 14.8272C19.4133 15.0405 19.0933 15.1472 18.6666 15.1472C18.2399 15.1472 17.8133 15.0405 17.5999 14.8272C17.2799 14.6139 17.1733 14.2939 17.1733 13.9739C17.1733 13.5472 17.2799 13.3339 17.5999 13.1205C17.9199 12.9072 18.2399 12.8005 18.6666 12.8005C19.0933 12.8005 19.52 12.9072 19.7333 13.1205C19.9466 13.2272 20.16 13.5472 20.16 13.9739Z" fill="#7F7F7F"/>
</svg>
