<svg width="148" height="148" viewBox="0 0 148 148" fill="none" xmlns="http://www.w3.org/2000/svg">
<path d="M69.7625 64.04V65.6906H67.5209V72.4986H65.4613V65.6906H63.2207V64.04H69.7625Z" fill="white"/>
<path d="M72.6117 72.0291C71.9488 71.6591 71.4226 71.1431 71.033 70.4813C70.6435 69.8183 70.4482 69.0732 70.4482 68.2458C70.4482 67.4185 70.6435 66.6764 71.033 66.0166C71.4226 65.3578 71.9488 64.8439 72.6117 64.4739C73.2746 64.1039 74.0033 63.9199 74.7988 63.9199C75.5943 63.9199 76.324 64.1039 76.9859 64.4739C77.6489 64.8439 78.171 65.3578 78.5533 66.0166C78.9346 66.6754 79.1258 67.4175 79.1258 68.2458C79.1258 69.0742 78.9325 69.8183 78.5471 70.4813C78.1617 71.1431 77.6396 71.6601 76.9798 72.0291C76.322 72.3981 75.5943 72.5831 74.7988 72.5831C74.0033 72.5831 73.2746 72.397 72.6117 72.0291ZM76.4196 70.028C76.8256 69.5778 77.0281 68.9838 77.0281 68.2448C77.0281 67.4976 76.8256 66.9015 76.4196 66.4555C76.0137 66.0104 75.473 65.7864 74.7988 65.7864C74.1164 65.7864 73.5717 66.0084 73.1657 66.4493C72.7597 66.8912 72.5572 67.4894 72.5572 68.2448C72.5572 68.992 72.7597 69.5881 73.1657 70.0342C73.5717 70.4802 74.1154 70.7033 74.7988 70.7033C75.473 70.7033 76.0137 70.4782 76.4196 70.028Z" fill="white"/>
<path d="M86.3777 68.1059C86.1536 68.5119 85.8072 68.8387 85.3417 69.0875C84.8761 69.3362 84.2974 69.4616 83.6068 69.4616H82.3292V72.4986H80.2686V64.04H83.6068C84.281 64.04 84.8524 64.1562 85.318 64.3895C85.7836 64.6228 86.1331 64.9435 86.3664 65.3535C86.5986 65.7636 86.7158 66.2333 86.7158 66.7636C86.7158 67.2518 86.6027 67.7 86.3777 68.1059ZM84.3293 67.5458C84.5225 67.3618 84.6181 67.1008 84.6181 66.7636C84.6181 66.4265 84.5225 66.1644 84.3293 65.9805C84.1371 65.7965 83.8432 65.703 83.4495 65.703H82.3282V67.8243H83.4495C83.8432 67.8233 84.1371 67.7308 84.3293 67.5458Z" fill="white"/>
<path d="M63.8438 79.0931V75.3735H70.3239V92.4552H66.1593V79.0931H63.8438Z" fill="white"/>
<path d="M74.6186 77.3396C75.6566 75.7949 77.3288 75.022 79.6382 75.022C81.9466 75.022 83.6198 75.7949 84.6558 77.3396C85.6939 78.8844 86.2139 80.9975 86.2139 83.681C86.2139 86.3943 85.6939 88.5239 84.6558 90.0676C83.6198 91.6124 81.9456 92.3852 79.6382 92.3852C77.3278 92.3852 75.6566 91.6124 74.6186 90.0676C73.5805 88.5229 73.0625 86.3943 73.0625 83.681C73.0625 80.9975 73.5805 78.8844 74.6186 77.3396ZM81.7668 80.0416C81.4235 79.1927 80.7133 78.7662 79.6382 78.7662C78.5601 78.7662 77.8519 79.1927 77.5076 80.0416C77.1644 80.8926 76.9938 82.1044 76.9938 83.681C76.9938 84.7417 77.0564 85.6194 77.1808 86.3131C77.3062 87.0079 77.5601 87.5701 77.9424 87.9987C78.3237 88.4273 78.889 88.6421 79.6392 88.6421C80.3875 88.6421 80.9528 88.4273 81.3361 87.9987C81.7174 87.5701 81.9703 87.0089 82.0956 86.3131C82.219 85.6204 82.2827 84.7417 82.2827 83.681C82.2817 82.1044 82.11 80.8926 81.7668 80.0416Z" fill="white"/>
<path d="M41.7047 24.4959C42.1043 22.8033 41.0562 21.1072 39.3636 20.7075C37.671 20.3078 35.9749 21.356 35.5752 23.0486C35.1756 24.7412 36.2237 26.4373 37.9163 26.8369C39.6089 27.2366 41.305 26.1885 41.7047 24.4959Z" fill="#FC115C"/>
<path d="M101.285 62.3288V92.9864L74.7343 108.316L48.1837 92.9864V62.3288L68.6652 50.5032L73.6068 53.3553L53.1232 65.1809V90.1343L74.7343 102.613L96.3454 90.1343V65.1788L48.0151 37.2757L52.4469 58.563L47.9422 61.1643L40.9307 27.481L101.285 62.3288Z" fill="#FC115C"/>
<path d="M108.54 27.481L101.528 61.1643L97.0406 58.5733L101.455 37.2757L80.8038 49.1989L75.8643 46.3468L108.54 27.481Z" fill="#FC115C"/>
<path d="M86.8707 38.6867L82.5931 41.1565L74.7337 27.1119L66.8743 41.1565L62.5967 38.6867L74.7337 16.9985L86.8707 38.6867Z" fill="#FC115C"/>
<path d="M74.737 15.869C76.4762 15.869 77.8861 14.4591 77.8861 12.7199C77.8861 10.9807 76.4762 9.5708 74.737 9.5708C72.9978 9.5708 71.5879 10.9807 71.5879 12.7199C71.5879 14.4591 72.9978 15.869 74.737 15.869Z" fill="#FC115C"/>
<path d="M111.34 26.8765C113.057 26.5979 114.223 24.9803 113.944 23.2636C113.666 21.5468 112.048 20.381 110.331 20.6596C108.614 20.9382 107.449 22.5558 107.727 24.2726C108.006 25.9893 109.623 27.1552 111.34 26.8765Z" fill="#FC115C"/>
<path d="M67.4645 27.6751L65.0523 31.9856L59.7993 28.9526L56.3655 35.0895L52.0879 32.6197L57.9329 22.1724L67.4645 27.6751Z" fill="#FC115C"/>
<path d="M97.3835 32.6197L93.1049 35.0895L89.6711 28.9526L84.4171 31.9866L82.0049 27.6761L91.5375 22.1724L97.3835 32.6197Z" fill="#FC115C"/>
<path d="M59.461 19.0116C59.6898 17.6013 58.7321 16.2725 57.3218 16.0437C55.9116 15.8148 54.5828 16.7725 54.3539 18.1828C54.125 19.5931 55.0827 20.9219 56.493 21.1508C57.9033 21.3796 59.2321 20.4219 59.461 19.0116Z" fill="#FC115C"/>
<path d="M93.1577 21.1092C94.5481 20.7808 95.4091 19.3875 95.0808 17.9971C94.7525 16.6067 93.3592 15.7457 91.9688 16.074C90.5783 16.4023 89.7173 17.7956 90.0456 19.186C90.374 20.5765 91.7673 21.4375 93.1577 21.1092Z" fill="#FC115C"/>
<path d="M3.43744 114.345C4.05205 113.234 4.90819 112.366 6.00791 111.746C7.10558 111.124 8.35227 110.815 9.74286 110.815C11.449 110.815 12.9094 111.265 14.1243 112.166C15.3391 113.066 16.15 114.294 16.5601 115.85H12.7121C12.4254 115.25 12.0194 114.793 11.4942 114.479C10.968 114.165 10.3719 114.007 9.7038 114.007C8.62463 114.007 7.75102 114.383 7.08297 115.134C6.41286 115.885 6.07986 116.888 6.07986 118.144C6.07986 119.399 6.41286 120.403 7.08297 121.152C7.75102 121.904 8.62361 122.279 9.7038 122.279C10.3719 122.279 10.968 122.123 11.4942 121.807C12.0194 121.494 12.4254 121.036 12.7121 120.436H16.5601C16.15 121.992 15.3391 123.216 14.1243 124.111C12.9094 125.004 11.449 125.45 9.74286 125.45C8.35227 125.45 7.10558 125.141 6.00791 124.519C4.90819 123.9 4.05205 123.035 3.43744 121.93C2.82488 120.824 2.51758 119.563 2.51758 118.144C2.51758 116.724 2.82386 115.457 3.43744 114.345Z" fill="white"/>
<path d="M18.6776 116.525C19.1226 115.637 19.726 114.956 20.4906 114.478C21.2553 114 22.1083 113.762 23.0498 113.762C23.8545 113.762 24.5606 113.925 25.1691 114.253C25.7755 114.581 26.2431 115.011 26.5699 115.543V113.925H30.0716V125.349H26.5699V123.731C26.2297 124.265 25.7549 124.694 25.1475 125.021C24.5411 125.349 23.835 125.512 23.0303 125.512C22.1011 125.512 21.2563 125.271 20.4916 124.786C19.727 124.301 19.1237 123.613 18.6786 122.718C18.2357 121.825 18.0137 120.791 18.0137 119.616C18.0126 118.443 18.2346 117.412 18.6776 116.525ZM25.8423 117.571C25.3571 117.066 24.7682 116.812 24.0714 116.812C23.3766 116.812 22.7856 117.061 22.3005 117.558C21.8175 118.058 21.5739 118.742 21.5739 119.616C21.5739 120.491 21.8175 121.182 22.3005 121.695C22.7856 122.207 23.3766 122.462 24.0714 122.462C24.7682 122.462 25.3571 122.21 25.8423 121.705C26.3274 121.201 26.5689 120.511 26.5689 119.638C26.5689 118.763 26.3274 118.075 25.8423 117.571Z" fill="white"/>
<path d="M34.5935 125.001C33.8155 124.659 33.2009 124.193 32.7507 123.598C32.3005 123.005 32.0477 122.34 31.9922 121.602H35.4527C35.4928 121.998 35.6778 122.318 36.0057 122.565C36.3325 122.809 36.7354 122.933 37.2133 122.933C37.6501 122.933 37.9862 122.847 38.2267 122.676C38.4651 122.506 38.5844 122.284 38.5844 122.011C38.5844 121.683 38.4127 121.441 38.0725 121.284C37.7313 121.128 37.1784 120.952 36.4137 120.761C35.5956 120.571 34.9131 120.369 34.3684 120.158C33.8216 119.946 33.3509 119.611 32.9552 119.155C32.5585 118.698 32.3601 118.08 32.3601 117.302C32.3601 116.648 32.5421 116.05 32.9028 115.512C33.2646 114.972 33.7959 114.546 34.4989 114.232C35.2019 113.918 36.0385 113.761 37.0077 113.761C38.4405 113.761 39.57 114.115 40.3943 114.826C41.2206 115.536 41.6954 116.476 41.8167 117.651H38.5833C38.5289 117.254 38.3552 116.941 38.0622 116.708C37.7673 116.477 37.3829 116.362 36.9039 116.362C36.4959 116.362 36.1814 116.44 35.9625 116.597C35.7436 116.755 35.6346 116.968 35.6346 117.242C35.6346 117.57 35.8094 117.815 36.1578 117.978C36.5062 118.142 37.0478 118.306 37.7858 118.469C38.6316 118.687 39.3202 118.902 39.8537 119.113C40.385 119.325 40.8537 119.666 41.2566 120.138C41.6584 120.608 41.866 121.239 41.8794 122.03C41.8794 122.7 41.6924 123.296 41.3162 123.823C40.941 124.348 40.4015 124.761 39.7005 125.06C38.9975 125.36 38.1815 125.51 37.2534 125.51C36.2575 125.511 35.3715 125.342 34.5935 125.001Z" fill="white"/>
<path d="M44.2868 112.196C43.8983 111.835 43.7041 111.389 43.7041 110.855C43.7041 110.31 43.8994 109.855 44.2868 109.494C44.6764 109.133 45.1779 108.952 45.7925 108.952C46.3928 108.952 46.8871 109.134 47.2767 109.494C47.6652 109.856 47.8594 110.31 47.8594 110.855C47.8594 111.389 47.6641 111.835 47.2767 112.196C46.8871 112.558 46.3917 112.739 45.7925 112.739C45.1779 112.739 44.6764 112.557 44.2868 112.196ZM47.5315 113.925V125.349H44.0309V113.925H47.5315Z" fill="white"/>
<path d="M60.2331 115.103C61.0306 115.969 61.4304 117.16 61.4304 118.674V125.348H57.9504V119.145C57.9504 118.38 57.752 117.787 57.3553 117.364C56.9606 116.941 56.4272 116.729 55.7592 116.729C55.0891 116.729 54.5577 116.941 54.162 117.364C53.7673 117.787 53.569 118.38 53.569 119.145V125.348H50.0684V113.924H53.569V115.44C53.9236 114.935 54.4015 114.536 55.0017 114.243C55.6029 113.95 56.2782 113.803 57.0295 113.803C58.3677 113.804 59.4355 114.236 60.2331 115.103Z" fill="white"/>
<path d="M66.0476 124.795C65.1535 124.318 64.4505 123.636 63.9386 122.748C63.4268 121.862 63.1709 120.824 63.1709 119.638C63.1709 118.463 63.4309 117.43 63.9489 116.536C64.4669 115.643 65.1771 114.956 66.0785 114.478C66.9798 114 67.9891 113.762 69.1084 113.762C70.2266 113.762 71.2379 114 72.1372 114.478C73.0386 114.956 73.7478 115.643 74.2668 116.536C74.7848 117.43 75.0448 118.463 75.0448 119.638C75.0448 120.81 74.7817 121.845 74.2565 122.738C73.7313 123.632 73.0139 124.319 72.1074 124.796C71.1999 125.274 70.1865 125.512 69.0673 125.512C67.947 125.511 66.9408 125.274 66.0476 124.795ZM70.7765 121.746C71.2482 121.254 71.4825 120.552 71.4825 119.639C71.4825 118.725 71.2544 118.021 70.796 117.53C70.3396 117.038 69.7764 116.794 69.1084 116.794C68.4249 116.794 67.8586 117.035 67.4095 117.52C66.9583 118.005 66.7332 118.712 66.7332 119.64C66.7332 120.554 66.9552 121.255 67.3992 121.747C67.8421 122.238 68.3992 122.484 69.0673 122.484C69.7353 122.484 70.3047 122.237 70.7765 121.746Z" fill="white"/>
<path d="M93.6925 110.979V125.349H90.1919V119.433H84.7457V125.349H81.2451V110.979H84.7457V116.608H90.1919V110.979H93.6925Z" fill="white"/>
<path d="M98.3904 124.795C97.4963 124.318 96.7933 123.636 96.2814 122.748C95.7696 121.862 95.5137 120.824 95.5137 119.638C95.5137 118.463 95.7737 117.43 96.2917 116.536C96.8097 115.643 97.5199 114.956 98.4213 114.478C99.3226 114 100.332 113.762 101.451 113.762C102.569 113.762 103.581 114 104.48 114.478C105.381 114.956 106.091 115.643 106.61 116.536C107.128 117.43 107.388 118.463 107.388 119.638C107.388 120.81 107.124 121.845 106.599 122.738C106.074 123.632 105.357 124.319 104.45 124.796C103.543 125.274 102.529 125.512 101.41 125.512C100.29 125.511 99.2836 125.274 98.3904 124.795ZM103.118 121.746C103.59 121.254 103.824 120.552 103.824 119.639C103.824 118.725 103.596 118.021 103.138 117.53C102.681 117.038 102.118 116.794 101.45 116.794C100.767 116.794 100.2 117.035 99.7512 117.52C99.3 118.005 99.0749 118.712 99.0749 119.64C99.0749 120.554 99.2969 121.255 99.7409 121.747C100.184 122.238 100.741 122.484 101.409 122.484C102.077 122.483 102.646 122.237 103.118 121.746Z" fill="white"/>
<path d="M115.614 122.379V125.348H113.833C112.565 125.348 111.574 125.038 110.866 124.416C110.155 123.795 109.801 122.782 109.801 121.376V116.831H108.408V113.925H109.801V111.141H113.301V113.925H115.593V116.831H113.301V121.417C113.301 121.759 113.383 122.004 113.546 122.153C113.711 122.303 113.983 122.378 114.365 122.378H115.614V122.379Z" fill="white"/>
<path d="M128.265 120.475H120.344C120.399 121.186 120.628 121.728 121.031 122.103C121.433 122.479 121.927 122.666 122.515 122.666C123.388 122.666 123.994 122.298 124.336 121.561H128.063C127.872 122.311 127.526 122.988 127.028 123.587C126.529 124.188 125.906 124.658 125.155 125C124.404 125.342 123.564 125.512 122.636 125.512C121.517 125.512 120.52 125.274 119.647 124.796C118.775 124.319 118.091 123.637 117.6 122.749C117.11 121.863 116.864 120.825 116.864 119.639C116.864 118.45 117.106 117.412 117.591 116.526C118.076 115.638 118.755 114.957 119.628 114.479C120.501 114.001 121.504 113.763 122.636 113.763C123.742 113.763 124.726 113.994 125.585 114.46C126.444 114.923 127.116 115.586 127.6 116.445C128.086 117.304 128.327 118.308 128.327 119.454C128.327 119.781 128.308 120.123 128.265 120.475ZM124.745 118.532C124.745 117.931 124.541 117.453 124.131 117.099C123.723 116.744 123.21 116.565 122.596 116.565C122.008 116.565 121.513 116.737 121.112 117.078C120.709 117.42 120.46 117.903 120.364 118.531H124.745V118.532Z" fill="white"/>
<path d="M133.671 110.2V125.349H130.17V110.2H133.671Z" fill="white"/>
<path d="M138.194 125.001C137.416 124.659 136.801 124.193 136.351 123.598C135.901 123.005 135.648 122.34 135.593 121.602H139.053C139.093 121.998 139.278 122.318 139.606 122.565C139.933 122.809 140.336 122.933 140.814 122.933C141.251 122.933 141.587 122.847 141.827 122.676C142.066 122.506 142.185 122.284 142.185 122.011C142.185 121.683 142.013 121.441 141.673 121.284C141.332 121.128 140.779 120.952 140.014 120.761C139.196 120.571 138.514 120.369 137.969 120.158C137.422 119.946 136.951 119.611 136.556 119.155C136.159 118.698 135.961 118.08 135.961 117.302C135.961 116.648 136.143 116.05 136.503 115.512C136.865 114.972 137.397 114.546 138.1 114.232C138.803 113.918 139.639 113.761 140.608 113.761C142.041 113.761 143.171 114.115 143.995 114.826C144.821 115.536 145.296 116.476 145.417 117.651H142.184C142.129 117.254 141.956 116.941 141.663 116.708C141.368 116.477 140.983 116.362 140.505 116.362C140.096 116.362 139.782 116.44 139.563 116.597C139.344 116.755 139.235 116.968 139.235 117.242C139.235 117.57 139.41 117.815 139.758 117.978C140.107 118.142 140.648 118.306 141.386 118.469C142.232 118.687 142.921 118.902 143.454 119.113C143.986 119.325 144.454 119.666 144.857 120.138C145.259 120.608 145.467 121.239 145.48 122.03C145.48 122.7 145.293 123.296 144.917 123.823C144.542 124.348 144.002 124.761 143.301 125.06C142.598 125.36 141.782 125.51 140.854 125.51C139.858 125.511 138.972 125.342 138.194 125.001Z" fill="white"/>
<path d="M38.0093 131.248L35.9979 138.347H35.2055L33.4182 132.294L31.5898 138.347L30.8179 138.358L28.8477 131.248H29.6092L31.2342 137.474L33.0523 131.248H33.8447L35.6125 137.474L37.2477 131.248H38.0093Z" fill="white"/>
<path d="M45.195 138.078C44.7788 137.845 44.4499 137.513 44.2094 137.083C43.9689 136.654 43.8486 136.151 43.8486 135.574C43.8486 134.999 43.9709 134.496 44.2145 134.067C44.4581 133.637 44.7901 133.305 45.2094 133.071C45.6298 132.837 46.0995 132.72 46.6216 132.72C47.1427 132.72 47.6154 132.837 48.0389 133.071C48.4623 133.304 48.7943 133.636 49.0338 134.067C49.2743 134.496 49.3945 135 49.3945 135.574C49.3945 136.143 49.2732 136.644 49.0286 137.078C48.785 137.512 48.45 137.845 48.0235 138.078C47.5969 138.311 47.1231 138.428 46.601 138.428C46.0799 138.428 45.6113 138.312 45.195 138.078ZM47.6165 137.56C47.9279 137.395 48.1797 137.144 48.3729 136.809C48.5661 136.474 48.6627 136.063 48.6627 135.574C48.6627 135.087 48.5682 134.675 48.378 134.34C48.1879 134.005 47.9382 133.754 47.6267 133.589C47.3153 133.423 46.9762 133.34 46.6113 133.34C46.2464 133.34 45.9073 133.423 45.5959 133.589C45.2844 133.755 45.0357 134.005 44.8497 134.34C44.6637 134.675 44.5701 135.086 44.5701 135.574C44.5701 136.062 44.6626 136.474 44.8497 136.809C45.0357 137.144 45.2834 137.395 45.5907 137.56C45.899 137.727 46.2362 137.809 46.601 137.809C46.9659 137.809 47.305 137.727 47.6165 137.56Z" fill="white"/>
<path d="M57.2011 132.984C57.5228 132.795 57.9174 132.7 58.384 132.7V133.441H58.1908C57.6759 133.441 57.2627 133.579 56.9513 133.857C56.6399 134.134 56.4837 134.598 56.4837 135.249V138.346H55.7725V132.8H56.4837V133.786C56.6399 133.442 56.8794 133.175 57.2011 132.984Z" fill="white"/>
<path d="M65.2405 130.831V138.347H64.5293V130.831H65.2405Z" fill="white"/>
<path d="M71.9537 134.067C72.1839 133.637 72.5005 133.305 72.9034 133.071C73.3062 132.837 73.7615 132.72 74.2693 132.72C74.7564 132.72 75.1974 132.838 75.59 133.076C75.9826 133.313 76.2704 133.62 76.4533 134V130.831H77.1645V138.347H76.4533V137.108C76.2837 137.494 76.0062 137.811 75.6208 138.057C75.2344 138.305 74.7811 138.428 74.26 138.428C73.7523 138.428 73.297 138.31 72.8941 138.073C72.4912 137.835 72.1767 137.5 71.9496 137.068C71.7224 136.634 71.6094 136.133 71.6094 135.564C71.6084 134.996 71.7235 134.496 71.9537 134.067ZM76.1789 134.396C75.9959 134.058 75.7472 133.797 75.4327 133.614C75.1182 133.431 74.7708 133.34 74.3916 133.34C73.999 133.34 73.6464 133.428 73.335 133.604C73.0236 133.78 72.778 134.036 72.5981 134.371C72.4182 134.706 72.3288 135.104 72.3288 135.564C72.3288 136.017 72.4182 136.416 72.5981 136.757C72.778 137.099 73.0226 137.36 73.335 137.539C73.6464 137.719 73.999 137.809 74.3916 137.809C74.7708 137.809 75.1182 137.717 75.4327 137.534C75.7472 137.351 75.9959 137.091 76.1789 136.752C76.3618 136.414 76.4533 136.02 76.4533 135.574C76.4533 135.127 76.3618 134.735 76.1789 134.396Z" fill="white"/>
<path d="M91.1815 132.802L89.4446 138.348H88.7333L87.1999 133.696L85.6665 138.348H84.9449L83.208 132.802H83.9295L85.3108 137.626L86.8648 132.802H87.5761L89.1095 137.636L90.4806 132.802H91.1815Z" fill="white"/>
<path d="M97.2146 131.603C97.1129 131.501 97.0625 131.376 97.0625 131.227C97.0625 131.078 97.1129 130.955 97.2146 130.856C97.3164 130.758 97.4376 130.709 97.5805 130.709C97.7234 130.709 97.8446 130.758 97.9464 130.856C98.0481 130.955 98.0985 131.078 98.0985 131.227C98.0985 131.376 98.0481 131.501 97.9464 131.603C97.8446 131.705 97.7234 131.755 97.5805 131.755C97.4376 131.755 97.3164 131.705 97.2146 131.603ZM97.9361 132.802V138.347H97.2249V132.802H97.9361Z" fill="white"/>
<path d="M104.649 134.067C104.879 133.637 105.196 133.305 105.599 133.071C106.002 132.837 106.457 132.72 106.965 132.72C107.452 132.72 107.893 132.838 108.285 133.076C108.678 133.313 108.966 133.62 109.149 134V130.831H109.86V138.347H109.149V137.108C108.979 137.494 108.702 137.811 108.316 138.057C107.93 138.305 107.476 138.428 106.955 138.428C106.448 138.428 105.992 138.31 105.589 138.073C105.187 137.835 104.872 137.5 104.645 137.068C104.418 136.634 104.305 136.133 104.305 135.564C104.304 134.996 104.419 134.496 104.649 134.067ZM108.874 134.396C108.691 134.058 108.443 133.797 108.128 133.614C107.814 133.431 107.466 133.34 107.087 133.34C106.694 133.34 106.342 133.428 106.03 133.604C105.719 133.78 105.473 134.036 105.293 134.371C105.114 134.706 105.024 135.104 105.024 135.564C105.024 136.017 105.114 136.416 105.293 136.757C105.473 137.099 105.718 137.36 106.03 137.539C106.342 137.719 106.694 137.809 107.087 137.809C107.466 137.809 107.814 137.717 108.128 137.534C108.443 137.351 108.691 137.091 108.874 136.752C109.057 136.414 109.149 136.02 109.149 135.574C109.149 135.127 109.057 134.735 108.874 134.396Z" fill="white"/>
<path d="M121.56 135.849H116.959C116.979 136.269 117.08 136.628 117.263 136.926C117.446 137.224 117.686 137.449 117.985 137.601C118.283 137.753 118.607 137.829 118.96 137.829C119.42 137.829 119.808 137.717 120.123 137.494C120.438 137.271 120.646 136.969 120.748 136.59H121.5C121.364 137.131 121.074 137.573 120.631 137.916C120.187 138.258 119.631 138.428 118.96 138.428C118.439 138.428 117.971 138.311 117.558 138.078C117.145 137.845 116.821 137.513 116.588 137.083C116.354 136.654 116.237 136.151 116.237 135.574C116.237 134.999 116.352 134.494 116.583 134.061C116.813 133.628 117.135 133.297 117.548 133.066C117.961 132.835 118.432 132.72 118.96 132.72C119.488 132.72 119.951 132.835 120.346 133.066C120.742 133.296 121.047 133.606 121.26 133.995C121.474 134.384 121.58 134.816 121.58 135.29C121.581 135.534 121.574 135.72 121.56 135.849ZM120.611 134.214C120.438 133.923 120.202 133.703 119.904 133.554C119.606 133.405 119.282 133.331 118.929 133.331C118.401 133.331 117.951 133.5 117.579 133.838C117.207 134.177 117 134.654 116.959 135.27H120.859C120.866 134.857 120.783 134.504 120.611 134.214Z" fill="white"/>
</svg>
