<svg width="103" height="103" viewBox="0 0 103 103" fill="none" xmlns="http://www.w3.org/2000/svg">
<path d="M48.5508 44.5693V45.7181H46.9908V50.4561H45.5574V45.7181H43.998V44.5693H48.5508Z" fill="white"/>
<path d="M50.534 50.1289C50.0726 49.8714 49.7064 49.5123 49.4353 49.0517C49.1642 48.5903 49.0283 48.0718 49.0283 47.496C49.0283 46.9202 49.1642 46.4037 49.4353 45.9445C49.7064 45.486 50.0726 45.1284 50.534 44.8709C50.9953 44.6134 51.5025 44.4854 52.0561 44.4854C52.6097 44.4854 53.1176 44.6134 53.5782 44.8709C54.0396 45.1284 54.4029 45.486 54.669 45.9445C54.9344 46.403 55.0674 46.9194 55.0674 47.496C55.0674 48.0725 54.9329 48.5903 54.6647 49.0517C54.3965 49.5123 54.0331 49.8721 53.5739 50.1289C53.1161 50.3857 52.6097 50.5144 52.0561 50.5144C51.5025 50.5144 50.9953 50.385 50.534 50.1289ZM53.1841 48.7362C53.4666 48.423 53.6075 48.0095 53.6075 47.4952C53.6075 46.9752 53.4666 46.5604 53.1841 46.2499C52.9015 45.9402 52.5253 45.7843 52.0561 45.7843C51.5811 45.7843 51.202 45.9388 50.9195 46.2457C50.637 46.5532 50.4961 46.9695 50.4961 47.4952C50.4961 48.0152 50.637 48.4301 50.9195 48.7405C51.202 49.051 51.5804 49.2062 52.0561 49.2062C52.5253 49.2062 52.9015 49.0495 53.1841 48.7362Z" fill="white"/>
<path d="M60.1139 47.399C59.958 47.6815 59.7169 47.909 59.3929 48.0821C59.0689 48.2552 58.6662 48.3424 58.1855 48.3424H57.2964V50.4561H55.8623V44.5693H58.1855C58.6547 44.5693 59.0524 44.6502 59.3765 44.8125C59.7005 44.9749 59.9437 45.1981 60.106 45.4835C60.2677 45.7689 60.3492 46.0957 60.3492 46.4648C60.3492 46.8046 60.2706 47.1164 60.1139 47.399ZM58.6884 47.0091C58.8228 46.8811 58.8894 46.6994 58.8894 46.4648C58.8894 46.2302 58.8228 46.0478 58.6884 45.9198C58.5546 45.7917 58.35 45.7267 58.0761 45.7267H57.2957V47.203H58.0761C58.35 47.2023 58.5546 47.1379 58.6884 47.0091Z" fill="white"/>
<path d="M44.4316 55.0446V52.4561H48.9415V64.344H46.0432V55.0446H44.4316Z" fill="white"/>
<path d="M51.9306 53.8247C52.653 52.7497 53.8168 52.2118 55.424 52.2118C57.0305 52.2118 58.195 52.7497 58.916 53.8247C59.6384 54.8998 60.0004 56.3704 60.0004 58.238C60.0004 60.1263 59.6384 61.6084 58.916 62.6827C58.195 63.7578 57.0298 64.2957 55.424 64.2957C53.8161 64.2957 52.653 63.7578 51.9306 62.6827C51.2082 61.6077 50.8477 60.1263 50.8477 58.238C50.8477 56.3704 51.2082 54.8998 51.9306 53.8247ZM56.9053 55.7052C56.6664 55.1144 56.1722 54.8175 55.424 54.8175C54.6737 54.8175 54.1809 55.1144 53.9412 55.7052C53.7023 56.2975 53.5836 57.1408 53.5836 58.238C53.5836 58.9762 53.6272 59.587 53.7138 60.0698C53.801 60.5534 53.9777 60.9446 54.2438 61.2429C54.5092 61.5412 54.9026 61.6907 55.4247 61.6907C55.9454 61.6907 56.3388 61.5412 56.6056 61.2429C56.871 60.9446 57.047 60.5541 57.1342 60.0698C57.2201 59.5877 57.2644 58.9762 57.2644 58.238C57.2637 57.1408 57.1442 56.2975 56.9053 55.7052Z" fill="white"/>
<path d="M29.0243 17.0482C29.3024 15.8703 28.573 14.6899 27.395 14.4117C26.2171 14.1336 25.0367 14.863 24.7585 16.041C24.4804 17.2189 25.2098 18.3993 26.3878 18.6775C27.5657 18.9556 28.7461 18.2262 29.0243 17.0482Z" fill="#FC115C"/>
<path d="M70.4886 43.3782V64.7142L52.0108 75.3826L33.5331 64.7142V43.3782L47.7871 35.1482L51.2262 37.1331L36.9707 45.3631V62.7293L52.0108 71.4135L67.051 62.7293V45.3616L33.4158 25.9426L36.5 40.7574L33.365 42.5678L28.4854 19.126L70.4886 43.3782Z" fill="#FC115C"/>
<path d="M75.5377 19.126L70.6574 42.5678L67.5345 40.7646L70.6066 25.9426L56.2345 34.2405L52.7969 32.2556L75.5377 19.126Z" fill="#FC115C"/>
<path d="M60.4569 26.9239L57.4799 28.6427L52.0102 18.8684L46.5405 28.6427L43.5635 26.9239L52.0102 11.8301L60.4569 26.9239Z" fill="#FC115C"/>
<path d="M52.0129 11.0444C53.2233 11.0444 54.2045 10.0631 54.2045 8.85274C54.2045 7.64235 53.2233 6.66113 52.0129 6.66113C50.8025 6.66113 49.8213 7.64235 49.8213 8.85274C49.8213 10.0631 50.8025 11.0444 52.0129 11.0444Z" fill="#FC115C"/>
<path d="M77.4866 18.7048C78.6814 18.5109 79.4928 17.3852 79.2989 16.1904C79.105 14.9956 77.9792 14.1842 76.7844 14.3782C75.5897 14.5721 74.7783 15.6978 74.9722 16.8926C75.1661 18.0874 76.2918 18.8987 77.4866 18.7048Z" fill="#FC115C"/>
<path d="M46.9513 19.2612L45.2725 22.2611L41.6167 20.1503L39.227 24.4213L36.25 22.7024L40.3178 15.4316L46.9513 19.2612Z" fill="#FC115C"/>
<path d="M67.773 22.7024L64.7953 24.4213L62.4056 20.1503L58.7491 22.2618L57.0703 19.262L63.7045 15.4316L67.773 22.7024Z" fill="#FC115C"/>
<path d="M41.3808 13.2313C41.54 12.2499 40.8735 11.3251 39.892 11.1658C38.9106 11.0065 37.9858 11.673 37.8265 12.6545C37.6672 13.636 38.3337 14.5608 39.3152 14.7201C40.2967 14.8793 41.2215 14.2128 41.3808 13.2313Z" fill="#FC115C"/>
<path d="M64.8325 14.6911C65.8001 14.4626 66.3994 13.4929 66.1709 12.5252C65.9424 11.5576 64.9727 10.9584 64.005 11.1869C63.0374 11.4154 62.4382 12.385 62.6667 13.3527C62.8951 14.3204 63.8648 14.9196 64.8325 14.6911Z" fill="#FC115C"/>
<path d="M2.39213 79.579C2.81986 78.8058 3.41569 78.2014 4.18104 77.7701C4.94495 77.3373 5.81259 77.122 6.78036 77.122C7.96772 77.122 8.98413 77.4353 9.82959 78.0626C10.675 78.6885 11.2394 79.5432 11.5248 80.6262H8.84679C8.64723 80.2084 8.3647 79.8909 7.99919 79.672C7.63297 79.4538 7.21811 79.3437 6.75318 79.3437C6.00213 79.3437 5.39415 79.6055 4.92922 80.1276C4.46286 80.6505 4.23111 81.3486 4.23111 82.2227C4.23111 83.096 4.46286 83.7948 4.92922 84.3163C5.39415 84.8391 6.00142 85.1002 6.75318 85.1002C7.21811 85.1002 7.63297 84.9915 7.99919 84.7719C8.3647 84.5538 8.64723 84.2355 8.84679 83.8177H11.5248C11.2394 84.9007 10.675 85.7526 9.82959 86.3756C8.98413 86.9971 7.96772 87.3076 6.78036 87.3076C5.81259 87.3076 4.94495 87.0923 4.18104 86.6595C3.41569 86.2282 2.81986 85.6267 2.39213 84.8577C1.96582 84.0881 1.75195 83.2105 1.75195 82.2227C1.75195 81.2341 1.96511 80.3529 2.39213 79.579Z" fill="white"/>
<path d="M12.9982 81.0961C13.3079 80.4781 13.7278 80.0038 14.26 79.6712C14.7921 79.3386 15.3858 79.1727 16.041 79.1727C16.6011 79.1727 17.0925 79.2864 17.5159 79.5146C17.9379 79.7427 18.2634 80.0424 18.4908 80.4122V79.2864H20.9278V87.2367H18.4908V86.1109C18.2541 86.4821 17.9236 86.7811 17.5009 87.0085C17.0789 87.2367 16.5875 87.3504 16.0274 87.3504C15.3808 87.3504 14.7928 87.1823 14.2607 86.8447C13.7285 86.5071 13.3086 86.0286 12.9989 85.4056C12.6906 84.784 12.5361 84.0644 12.5361 83.2469C12.5354 82.4308 12.6899 81.7133 12.9982 81.0961ZM17.9844 81.8235C17.6468 81.4723 17.2369 81.2956 16.752 81.2956C16.2685 81.2956 15.8572 81.4687 15.5196 81.8149C15.1834 82.1625 15.0139 82.6389 15.0139 83.2469C15.0139 83.8556 15.1834 84.337 15.5196 84.6939C15.8572 85.0501 16.2685 85.2275 16.752 85.2275C17.2369 85.2275 17.6468 85.0523 17.9844 84.7011C18.322 84.3499 18.4901 83.8699 18.4901 83.2619C18.4901 82.6532 18.322 82.1747 17.9844 81.8235Z" fill="white"/>
<path d="M24.075 86.9943C23.5336 86.7568 23.1058 86.4321 22.7925 86.0179C22.4792 85.6052 22.3033 85.1424 22.2646 84.6289H24.673C24.7009 84.905 24.8296 85.1274 25.0578 85.2991C25.2853 85.4693 25.5657 85.5551 25.8983 85.5551C26.2023 85.5551 26.4361 85.4958 26.6035 85.3763C26.7695 85.2583 26.8524 85.1038 26.8524 84.9135C26.8524 84.6854 26.733 84.5173 26.4962 84.4078C26.2588 84.2991 25.8739 84.1768 25.3418 84.0438C24.7724 83.9114 24.2975 83.7712 23.9184 83.6239C23.5378 83.4765 23.2102 83.2434 22.9349 82.9258C22.6588 82.6082 22.5207 82.1783 22.5207 81.6368C22.5207 81.1812 22.6473 80.7649 22.8984 80.3908C23.1502 80.0153 23.52 79.7185 24.0092 79.5003C24.4985 79.2814 25.0807 79.172 25.7552 79.172C26.7523 79.172 27.5384 79.4188 28.112 79.913C28.6871 80.4073 29.0176 81.0618 29.102 81.8793H26.8517C26.8138 81.6032 26.6929 81.3851 26.4891 81.2234C26.2838 81.0625 26.0163 80.9824 25.683 80.9824C25.399 80.9824 25.1801 81.0367 25.0278 81.1462C24.8754 81.2556 24.7996 81.4044 24.7996 81.5946C24.7996 81.8228 24.9212 81.9938 25.1637 82.1068C25.4061 82.2212 25.7831 82.335 26.2967 82.4487C26.8853 82.6003 27.3646 82.7498 27.7358 82.8972C28.1056 83.0445 28.4318 83.282 28.7122 83.6103C28.9918 83.9372 29.1363 84.3764 29.1456 84.9271C29.1456 85.3935 29.0154 85.8083 28.7536 86.1746C28.4926 86.5401 28.1171 86.8276 27.6292 87.0358C27.14 87.2446 26.5721 87.3491 25.9262 87.3491C25.2331 87.3498 24.6165 87.2317 24.075 86.9943Z" fill="white"/>
<path d="M30.8206 78.0833C30.5502 77.8316 30.415 77.5211 30.415 77.1499C30.415 76.7708 30.5509 76.4539 30.8206 76.2029C31.0917 75.9511 31.4407 75.8252 31.8685 75.8252C32.2862 75.8252 32.6303 75.9518 32.9013 76.2029C33.1717 76.4546 33.3069 76.7708 33.3069 77.1499C33.3069 77.5211 33.171 77.8316 32.9013 78.0833C32.6303 78.3351 32.2855 78.461 31.8685 78.461C31.4407 78.461 31.0917 78.3344 30.8206 78.0833ZM33.0787 79.2864V87.2367H30.6425V79.2864H33.0787Z" fill="white"/>
<path d="M41.9188 80.1061C42.4739 80.7091 42.7521 81.5381 42.7521 82.5917V87.236H40.3302V82.9193C40.3302 82.3871 40.1921 81.9744 39.916 81.6797C39.6414 81.385 39.2702 81.2377 38.8052 81.2377C38.3389 81.2377 37.9691 81.385 37.6937 81.6797C37.419 81.9744 37.281 82.3871 37.281 82.9193V87.236H34.8447V79.2857H37.281V80.3407C37.5277 79.9895 37.8603 79.7113 38.2781 79.5074C38.6965 79.3036 39.1664 79.2013 39.6893 79.2013C40.6206 79.202 41.3638 79.5031 41.9188 80.1061Z" fill="white"/>
<path d="M45.965 86.8512C45.3427 86.5193 44.8534 86.0443 44.4972 85.4263C44.141 84.8098 43.9629 84.0873 43.9629 83.2619C43.9629 82.4444 44.1439 81.7255 44.5044 81.1032C44.8649 80.4816 45.3591 80.0038 45.9864 79.6712C46.6137 79.3386 47.3161 79.1727 48.095 79.1727C48.8733 79.1727 49.5771 79.3386 50.203 79.6712C50.8303 80.0038 51.3238 80.4816 51.685 81.1032C52.0455 81.7255 52.2265 82.4444 52.2265 83.2619C52.2265 84.078 52.0434 84.7983 51.6779 85.4199C51.3124 86.0422 50.8131 86.52 50.1822 86.8519C49.5506 87.1845 48.8454 87.3504 48.0664 87.3504C47.2868 87.3497 46.5865 87.1845 45.965 86.8512ZM49.2559 84.7289C49.5843 84.387 49.7473 83.8985 49.7473 83.2626C49.7473 82.6267 49.5886 82.1368 49.2695 81.7949C48.952 81.453 48.56 81.2827 48.095 81.2827C47.6194 81.2827 47.2253 81.4508 46.9127 81.7884C46.5987 82.126 46.442 82.6175 46.442 83.2633C46.442 83.8999 46.5965 84.3878 46.9055 84.7297C47.2138 85.0716 47.6015 85.2432 48.0664 85.2432C48.5314 85.2432 48.9276 85.0709 49.2559 84.7289Z" fill="white"/>
<path d="M65.2047 77.2354V87.2364H62.7685V83.1192H58.9782V87.2364H56.542V77.2354H58.9782V81.1529H62.7685V77.2354H65.2047Z" fill="white"/>
<path d="M68.4747 86.8512C67.8524 86.5193 67.3632 86.0443 67.007 85.4263C66.6508 84.8098 66.4727 84.0873 66.4727 83.2619C66.4727 82.4444 66.6536 81.7255 67.0141 81.1032C67.3746 80.4816 67.8689 80.0038 68.4962 79.6712C69.1235 79.3386 69.8259 79.1727 70.6048 79.1727C71.383 79.1727 72.0869 79.3386 72.7127 79.6712C73.34 80.0038 73.8336 80.4816 74.1948 81.1032C74.5553 81.7255 74.7363 82.4444 74.7363 83.2619C74.7363 84.078 74.5531 84.7983 74.1876 85.4199C73.8221 86.0422 73.3229 86.52 72.692 86.8519C72.0604 87.1845 71.3551 87.3504 70.5762 87.3504C69.7966 87.3497 69.0963 87.1845 68.4747 86.8512ZM71.765 84.7289C72.0933 84.387 72.2564 83.8985 72.2564 83.2626C72.2564 82.6267 72.0976 82.1368 71.7786 81.7949C71.461 81.453 71.069 81.2827 70.6041 81.2827C70.1284 81.2827 69.7343 81.4508 69.4217 81.7884C69.1077 82.126 68.9511 82.6175 68.9511 83.2633C68.9511 83.8999 69.1056 84.3878 69.4146 84.7297C69.7229 85.0716 70.1106 85.2432 70.5755 85.2432C71.0404 85.2425 71.4367 85.0709 71.765 84.7289Z" fill="white"/>
<path d="M80.4611 85.1703V87.236H79.2215C78.3389 87.236 77.6493 87.0207 77.1565 86.588C76.6623 86.1553 76.4155 85.4507 76.4155 84.4722V81.3092H75.4463V79.2864H76.4155V77.3488H78.8517V79.2864H80.4468V81.3092H78.8517V84.5008C78.8517 84.7383 78.9082 84.9092 79.022 85.013C79.1364 85.1174 79.326 85.1696 79.592 85.1696H80.4611V85.1703Z" fill="white"/>
<path d="M89.2656 83.8453H83.753C83.7909 84.3403 83.9504 84.7172 84.2308 84.9783C84.5105 85.2401 84.8545 85.3703 85.2637 85.3703C85.8709 85.3703 86.2929 85.1142 86.5311 84.6014H89.1247C88.9917 85.1228 88.7513 85.5942 88.4044 86.0112C88.0575 86.4296 87.6233 86.7565 87.1012 86.9947C86.5783 87.2321 85.9939 87.3509 85.348 87.3509C84.5691 87.3509 83.8753 87.1849 83.268 86.8523C82.6608 86.5204 82.1851 86.0455 81.8432 85.4275C81.502 84.8109 81.3311 84.0885 81.3311 83.2631C81.3311 82.4362 81.4991 81.7138 81.8368 81.0972C82.1744 80.4792 82.6472 80.005 83.2544 79.6724C83.8617 79.3398 84.5598 79.1738 85.348 79.1738C86.1177 79.1738 86.8022 79.3348 87.4002 79.6588C87.9982 79.9814 88.4659 80.4427 88.8028 81.0407C89.1405 81.6387 89.3085 82.3368 89.3085 83.1343C89.3085 83.3625 89.295 83.6 89.2656 83.8453ZM86.8158 82.4927C86.8158 82.075 86.6735 81.7424 86.3881 81.4956C86.1041 81.2488 85.7472 81.1244 85.3202 81.1244C84.911 81.1244 84.5663 81.2438 84.2873 81.4813C84.0069 81.7188 83.8338 82.055 83.7666 82.492H86.8158V82.4927Z" fill="white"/>
<path d="M93.0271 76.6943V87.2368H90.5908V76.6943H93.0271Z" fill="white"/>
<path d="M96.1756 86.9943C95.6341 86.7568 95.2064 86.4321 94.8931 86.0179C94.5798 85.6052 94.4039 85.1424 94.3652 84.6289H96.7736C96.8015 84.905 96.9302 85.1274 97.1584 85.2991C97.3858 85.4693 97.6662 85.5551 97.9988 85.5551C98.3028 85.5551 98.5367 85.4958 98.7041 85.3763C98.87 85.2583 98.953 85.1038 98.953 84.9135C98.953 84.6854 98.8336 84.5173 98.5968 84.4078C98.3593 84.2991 97.9745 84.1768 97.4424 84.0438C96.873 83.9114 96.3981 83.7712 96.019 83.6239C95.6384 83.4765 95.3108 83.2434 95.0354 82.9258C94.7594 82.6082 94.6213 82.1783 94.6213 81.6368C94.6213 81.1812 94.7479 80.7649 94.999 80.3908C95.2507 80.0153 95.6205 79.7185 96.1098 79.5003C96.599 79.2814 97.1813 79.172 97.8558 79.172C98.8529 79.172 99.639 79.4188 100.213 79.913C100.788 80.4073 101.118 81.0618 101.203 81.8793H98.9523C98.9144 81.6032 98.7935 81.3851 98.5897 81.2234C98.3844 81.0625 98.1169 80.9824 97.7835 80.9824C97.4996 80.9824 97.2807 81.0367 97.1284 81.1462C96.976 81.2556 96.9002 81.4044 96.9002 81.5946C96.9002 81.8228 97.0218 81.9938 97.2642 82.1068C97.5067 82.2212 97.8837 82.335 98.3973 82.4487C98.9859 82.6003 99.4652 82.7498 99.8364 82.8972C100.206 83.0445 100.532 83.282 100.813 83.6103C101.092 83.9372 101.237 84.3764 101.246 84.9271C101.246 85.3935 101.116 85.8083 100.854 86.1746C100.593 86.5401 100.218 86.8276 99.7298 87.0358C99.2406 87.2446 98.6726 87.3491 98.0267 87.3491C97.3336 87.3498 96.7171 87.2317 96.1756 86.9943Z" fill="white"/>
<path d="M26.4522 91.3414L25.0524 96.2826H24.5009L23.257 92.0696L21.9845 96.2826L21.4474 96.2897L20.0762 91.3414H20.6062L21.737 95.6746L23.0024 91.3414H23.5539L24.7841 95.6746L25.9221 91.3414H26.4522Z" fill="white"/>
<path d="M31.4536 96.0948C31.1639 95.9324 30.935 95.7014 30.7677 95.4024C30.6003 95.1034 30.5166 94.7536 30.5166 94.3524C30.5166 93.9518 30.6017 93.602 30.7712 93.303C30.9408 93.0041 31.1718 92.773 31.4636 92.6099C31.7562 92.4476 32.0831 92.366 32.4464 92.366C32.8091 92.366 33.1381 92.4476 33.4328 92.6099C33.7275 92.7723 33.9585 93.0033 34.1252 93.303C34.2926 93.602 34.3762 93.9525 34.3762 94.3524C34.3762 94.7479 34.2918 95.097 34.1216 95.3988C33.9521 95.7007 33.7189 95.9324 33.4221 96.0948C33.1252 96.2571 32.7955 96.3387 32.4321 96.3387C32.0695 96.3387 31.7433 96.2579 31.4536 96.0948ZM33.1388 95.7343C33.3555 95.6191 33.5308 95.4446 33.6653 95.2114C33.7997 94.9782 33.867 94.6921 33.867 94.3524C33.867 94.0133 33.8012 93.7265 33.6688 93.4933C33.5365 93.2601 33.3627 93.0856 33.146 92.9704C32.9292 92.8553 32.6932 92.7973 32.4393 92.7973C32.1853 92.7973 31.9493 92.8553 31.7326 92.9704C31.5158 93.0863 31.3427 93.2601 31.2133 93.4933C31.0838 93.7265 31.0187 94.0126 31.0187 94.3524C31.0187 94.6914 31.0831 94.9782 31.2133 95.2114C31.3427 95.4446 31.5151 95.6191 31.729 95.7343C31.9436 95.8502 32.1782 95.9074 32.4321 95.9074C32.686 95.9074 32.9221 95.8502 33.1388 95.7343Z" fill="white"/>
<path d="M39.8087 92.5505C40.0326 92.4189 40.3072 92.3524 40.632 92.3524V92.8681H40.4975C40.1391 92.8681 39.8516 92.9646 39.6349 93.1578C39.4181 93.3509 39.3094 93.6735 39.3094 94.1262V96.2821H38.8145V92.4225H39.3094V93.1084C39.4181 92.8688 39.5848 92.6828 39.8087 92.5505Z" fill="white"/>
<path d="M45.4032 91.0518V96.2826H44.9082V91.0518H45.4032Z" fill="white"/>
<path d="M50.0756 93.3035C50.2358 93.0045 50.4561 92.7734 50.7365 92.6104C51.0169 92.448 51.3337 92.3664 51.6871 92.3664C52.0261 92.3664 52.333 92.4487 52.6062 92.6139C52.8794 92.7792 53.0797 92.993 53.207 93.257V91.0518H53.702V96.2826H53.207V95.42C53.089 95.6889 52.8959 95.9092 52.6277 96.0809C52.3587 96.2533 52.0433 96.3391 51.6806 96.3391C51.3273 96.3391 51.0104 96.2568 50.73 96.0916C50.4497 95.9264 50.2308 95.6932 50.0727 95.3921C49.9146 95.0902 49.8359 94.7419 49.8359 94.3456C49.8352 93.9501 49.9153 93.6024 50.0756 93.3035ZM53.0161 93.5331C52.8887 93.2977 52.7157 93.1161 52.4968 92.9887C52.2779 92.8614 52.0361 92.7978 51.7722 92.7978C51.499 92.7978 51.2536 92.8593 51.0369 92.9816C50.8202 93.1039 50.6492 93.282 50.524 93.5152C50.3989 93.7484 50.3366 94.0252 50.3366 94.3456C50.3366 94.6611 50.3989 94.9386 50.524 95.1761C50.6492 95.4142 50.8195 95.5952 51.0369 95.7204C51.2536 95.8456 51.499 95.9078 51.7722 95.9078C52.0361 95.9078 52.2779 95.8441 52.4968 95.7168C52.7157 95.5895 52.8887 95.4085 53.0161 95.1725C53.1434 94.9372 53.207 94.6632 53.207 94.3528C53.207 94.0416 53.1434 93.7684 53.0161 93.5331Z" fill="white"/>
<path d="M63.4573 92.4227L62.2485 96.2823H61.7535L60.6863 93.045L59.6191 96.2823H59.117L57.9082 92.4227H58.4103L59.3717 95.7802L60.4532 92.4227H60.9481L62.0153 95.7873L62.9695 92.4227H63.4573Z" fill="white"/>
<path d="M67.6557 91.5889C67.5849 91.5181 67.5498 91.4308 67.5498 91.3271C67.5498 91.2234 67.5849 91.1376 67.6557 91.0689C67.7265 91.0009 67.8109 90.9666 67.9103 90.9666C68.0097 90.9666 68.0941 91.0009 68.1649 91.0689C68.2358 91.1376 68.2708 91.2234 68.2708 91.3271C68.2708 91.4308 68.2358 91.5181 68.1649 91.5889C68.0941 91.6597 68.0097 91.6948 67.9103 91.6948C67.8109 91.6948 67.7265 91.6597 67.6557 91.5889ZM68.1578 92.4229V96.2826H67.6628V92.4229H68.1578Z" fill="white"/>
<path d="M72.8304 93.3035C72.9907 93.0045 73.211 92.7734 73.4914 92.6104C73.7717 92.448 74.0886 92.3664 74.442 92.3664C74.781 92.3664 75.0879 92.4487 75.3611 92.6139C75.6343 92.7792 75.8346 92.993 75.9619 93.257V91.0518H76.4569V96.2826H75.9619V95.42C75.8439 95.6889 75.6508 95.9092 75.3826 96.0809C75.1136 96.2533 74.7982 96.3391 74.4355 96.3391C74.0822 96.3391 73.7653 96.2568 73.4849 96.0916C73.2045 95.9264 72.9857 95.6932 72.8276 95.3921C72.6695 95.0902 72.5908 94.7419 72.5908 94.3456C72.5901 93.9501 72.6702 93.6024 72.8304 93.3035ZM75.7709 93.5331C75.6436 93.2977 75.4705 93.1161 75.2517 92.9887C75.0328 92.8614 74.791 92.7978 74.5271 92.7978C74.2539 92.7978 74.0085 92.8593 73.7918 92.9816C73.575 93.1039 73.4041 93.282 73.2789 93.5152C73.1537 93.7484 73.0915 94.0252 73.0915 94.3456C73.0915 94.6611 73.1537 94.9386 73.2789 95.1761C73.4041 95.4142 73.5743 95.5952 73.7918 95.7204C74.0085 95.8456 74.2539 95.9078 74.5271 95.9078C74.791 95.9078 75.0328 95.8441 75.2517 95.7168C75.4705 95.5895 75.6436 95.4085 75.7709 95.1725C75.8983 94.9372 75.9619 94.6632 75.9619 94.3528C75.9619 94.0416 75.8983 93.7684 75.7709 93.5331Z" fill="white"/>
<path d="M84.599 94.5433H81.3967C81.411 94.8359 81.4811 95.0855 81.6084 95.2929C81.7357 95.5004 81.9031 95.657 82.1105 95.7629C82.3179 95.8687 82.544 95.9217 82.7893 95.9217C83.1097 95.9217 83.3794 95.8437 83.599 95.6885C83.8179 95.5333 83.9631 95.323 84.0339 95.0591H84.5568C84.4623 95.436 84.2606 95.7436 83.9523 95.9818C83.6433 96.2199 83.2564 96.3387 82.7893 96.3387C82.4267 96.3387 82.1012 96.2571 81.8137 96.0948C81.5261 95.9324 81.3008 95.7014 81.1384 95.4024C80.9761 95.1034 80.8945 94.7536 80.8945 94.3524C80.8945 93.9518 80.9746 93.6006 81.1349 93.2995C81.2951 92.9976 81.519 92.7673 81.8065 92.6064C82.0941 92.4461 82.4216 92.366 82.7893 92.366C83.157 92.366 83.4788 92.4461 83.7542 92.6064C84.0296 92.7666 84.242 92.9826 84.3901 93.253C84.5389 93.5241 84.6125 93.8245 84.6125 94.1542C84.6133 94.3245 84.6083 94.4539 84.599 94.5433ZM83.938 93.4053C83.8179 93.2029 83.6541 93.0498 83.4466 92.9461C83.2392 92.8424 83.0132 92.7909 82.7678 92.7909C82.4002 92.7909 82.0869 92.9089 81.828 93.1443C81.569 93.3796 81.4253 93.7122 81.3967 94.1406H84.1111C84.1161 93.8531 84.0582 93.6078 83.938 93.4053Z" fill="white"/>
</svg>
