<svg width="103" height="103" viewBox="0 0 103 103" fill="none" xmlns="http://www.w3.org/2000/svg">
<path d="M48.5508 44.5682V45.717H46.9908V50.455H45.5574V45.717H43.998V44.5682H48.5508Z" fill="white"/>
<path d="M50.534 50.128C50.0726 49.8705 49.7064 49.5115 49.4353 49.0508C49.1642 48.5895 49.0283 48.0709 49.0283 47.4951C49.0283 46.9193 49.1642 46.4029 49.4353 45.9437C49.7064 45.4852 50.0726 45.1275 50.534 44.87C50.9953 44.6125 51.5025 44.4845 52.0561 44.4845C52.6097 44.4845 53.1176 44.6125 53.5782 44.87C54.0396 45.1275 54.4029 45.4852 54.669 45.9437C54.9344 46.4022 55.0674 46.9186 55.0674 47.4951C55.0674 48.0716 54.9329 48.5895 54.6647 49.0508C54.3965 49.5115 54.0331 49.8713 53.5739 50.128C53.1161 50.3848 52.6097 50.5136 52.0561 50.5136C51.5025 50.5136 50.9953 50.3841 50.534 50.128ZM53.1841 48.7354C53.4666 48.4221 53.6075 48.0087 53.6075 47.4944C53.6075 46.9744 53.4666 46.5595 53.1841 46.2491C52.9015 45.9394 52.5253 45.7834 52.0561 45.7834C51.5811 45.7834 51.202 45.9379 50.9195 46.2448C50.637 46.5524 50.4961 46.9687 50.4961 47.4944C50.4961 48.0144 50.637 48.4293 50.9195 48.7397C51.202 49.0501 51.5804 49.2053 52.0561 49.2053C52.5253 49.2053 52.9015 49.0487 53.1841 48.7354Z" fill="white"/>
<path d="M60.1139 47.3979C59.958 47.6804 59.7169 47.9079 59.3929 48.081C59.0689 48.2541 58.6662 48.3413 58.1855 48.3413H57.2964V50.455H55.8623V44.5682H58.1855C58.6547 44.5682 59.0524 44.6491 59.3765 44.8114C59.7005 44.9738 59.9437 45.197 60.106 45.4824C60.2677 45.7678 60.3492 46.0946 60.3492 46.4637C60.3492 46.8035 60.2706 47.1153 60.1139 47.3979ZM58.6884 47.008C58.8228 46.88 58.8894 46.6983 58.8894 46.4637C58.8894 46.2291 58.8228 46.0467 58.6884 45.9187C58.5546 45.7906 58.35 45.7256 58.0761 45.7256H57.2957V47.2019H58.0761C58.35 47.2012 58.5546 47.1368 58.6884 47.008Z" fill="white"/>
<path d="M44.4316 55.0442V52.4556H48.9415V64.3435H46.0432V55.0442H44.4316Z" fill="white"/>
<path d="M51.9306 53.8239C52.653 52.7488 53.8168 52.2109 55.424 52.2109C57.0305 52.2109 58.195 52.7488 58.916 53.8239C59.6384 54.899 60.0004 56.3696 60.0004 58.2372C60.0004 60.1255 59.6384 61.6075 58.916 62.6819C58.195 63.757 57.0298 64.2948 55.424 64.2948C53.8161 64.2948 52.653 63.757 51.9306 62.6819C51.2082 61.6068 50.8477 60.1255 50.8477 58.2372C50.8477 56.3696 51.2082 54.899 51.9306 53.8239ZM56.9053 55.7044C56.6664 55.1135 56.1722 54.8167 55.424 54.8167C54.6737 54.8167 54.1809 55.1135 53.9412 55.7044C53.7023 56.2966 53.5836 57.1399 53.5836 58.2372C53.5836 58.9753 53.6272 59.5862 53.7138 60.069C53.801 60.5525 53.9777 60.9438 54.2438 61.242C54.5092 61.5403 54.9026 61.6898 55.4247 61.6898C55.9454 61.6898 56.3388 61.5403 56.6056 61.242C56.871 60.9438 57.047 60.5532 57.1342 60.069C57.2201 59.5869 57.2644 58.9753 57.2644 58.2372C57.2637 57.1399 57.1442 56.2966 56.9053 55.7044Z" fill="white"/>
<path d="M29.0243 17.0477C29.3024 15.8698 28.573 14.6894 27.395 14.4112C26.2171 14.1331 25.0367 14.8625 24.7585 16.0405C24.4804 17.2184 25.2098 18.3988 26.3878 18.677C27.5657 18.9551 28.7461 18.2257 29.0243 17.0477Z" fill="#FC115C"/>
<path d="M70.4886 43.3773V64.7133L52.0108 75.3817L33.5331 64.7133V43.3773L47.7871 35.1473L51.2262 37.1322L36.9707 45.3622V62.7285L52.0108 71.4126L67.051 62.7285V45.3608L33.4158 25.9417L36.5 40.7565L33.365 42.5669L28.4854 19.1251L70.4886 43.3773Z" fill="#FC115C"/>
<path d="M75.5377 19.1251L70.6574 42.5669L67.5345 40.7637L70.6066 25.9417L56.2345 34.2397L52.7969 32.2548L75.5377 19.1251Z" fill="#FC115C"/>
<path d="M60.4569 26.9237L57.4799 28.6426L52.0102 18.8683L46.5405 28.6426L43.5635 26.9237L52.0102 11.83L60.4569 26.9237Z" fill="#FC115C"/>
<path d="M52.0129 11.0439C53.2233 11.0439 54.2045 10.0626 54.2045 8.85226C54.2045 7.64186 53.2233 6.66064 52.0129 6.66064C50.8025 6.66064 49.8213 7.64186 49.8213 8.85226C49.8213 10.0626 50.8025 11.0439 52.0129 11.0439Z" fill="#FC115C"/>
<path d="M77.4866 18.7043C78.6814 18.5104 79.4928 17.3847 79.2989 16.1899C79.105 14.9951 77.9792 14.1838 76.7844 14.3777C75.5897 14.5716 74.7783 15.6973 74.9722 16.8921C75.1661 18.0869 76.2918 18.8982 77.4866 18.7043Z" fill="#FC115C"/>
<path d="M46.9513 19.2603L45.2725 22.2601L41.6167 20.1494L39.227 24.4203L36.25 22.7015L40.3178 15.4307L46.9513 19.2603Z" fill="#FC115C"/>
<path d="M67.773 22.7015L64.7953 24.4203L62.4056 20.1494L58.7491 22.2609L57.0703 19.261L63.7045 15.4307L67.773 22.7015Z" fill="#FC115C"/>
<path d="M41.3808 13.231C41.54 12.2495 40.8735 11.3247 39.892 11.1654C38.9106 11.0061 37.9858 11.6727 37.8265 12.6541C37.6672 13.6356 38.3337 14.5604 39.3152 14.7197C40.2967 14.879 41.2215 14.2125 41.3808 13.231Z" fill="#FC115C"/>
<path d="M64.8325 14.6906C65.8001 14.4621 66.3994 13.4924 66.1709 12.5248C65.9424 11.5571 64.9727 10.9579 64.005 11.1864C63.0374 11.4149 62.4382 12.3845 62.6667 13.3522C62.8951 14.3199 63.8648 14.9191 64.8325 14.6906Z" fill="#FC115C"/>
<path d="M2.39213 79.5782C2.81986 78.805 3.41569 78.2006 4.18104 77.7693C4.94495 77.3365 5.81259 77.1212 6.78036 77.1212C7.96772 77.1212 8.98413 77.4345 9.82959 78.0618C10.675 78.6877 11.2394 79.5424 11.5248 80.6254H8.84679C8.64723 80.2076 8.3647 79.8901 7.99919 79.6712C7.63297 79.453 7.21811 79.3429 6.75318 79.3429C6.00213 79.3429 5.39415 79.6047 4.92922 80.1268C4.46286 80.6497 4.23111 81.3478 4.23111 82.2219C4.23111 83.0952 4.46286 83.794 4.92922 84.3155C5.39415 84.8384 6.00142 85.0994 6.75318 85.0994C7.21811 85.0994 7.63297 84.9907 7.99919 84.7711C8.3647 84.553 8.64723 84.2347 8.84679 83.8169H11.5248C11.2394 84.8999 10.675 85.7518 9.82959 86.3748C8.98413 86.9963 7.96772 87.3068 6.78036 87.3068C5.81259 87.3068 4.94495 87.0915 4.18104 86.6587C3.41569 86.2274 2.81986 85.6259 2.39213 84.8569C1.96582 84.0873 1.75195 83.2097 1.75195 82.2219C1.75195 81.2334 1.96511 80.3521 2.39213 79.5782Z" fill="white"/>
<path d="M12.9982 81.0954C13.3079 80.4774 13.7278 80.0031 14.26 79.6705C14.7921 79.3379 15.3858 79.172 16.041 79.172C16.6011 79.172 17.0925 79.2857 17.5159 79.5139C17.9379 79.7421 18.2634 80.0418 18.4908 80.4116V79.2857H20.9278V87.236H18.4908V86.1102C18.2541 86.4814 17.9236 86.7804 17.5009 87.0079C17.0789 87.236 16.5875 87.3498 16.0274 87.3498C15.3808 87.3498 14.7928 87.1817 14.2607 86.8441C13.7285 86.5065 13.3086 86.0279 12.9989 85.4049C12.6906 84.7834 12.5361 84.0638 12.5361 83.2462C12.5354 82.4301 12.6899 81.7127 12.9982 81.0954ZM17.9844 81.8228C17.6468 81.4716 17.2369 81.2949 16.752 81.2949C16.2685 81.2949 15.8572 81.468 15.5196 81.8142C15.1834 82.1619 15.0139 82.6382 15.0139 83.2462C15.0139 83.8549 15.1834 84.3363 15.5196 84.6932C15.8572 85.0494 16.2685 85.2268 16.752 85.2268C17.2369 85.2268 17.6468 85.0516 17.9844 84.7004C18.322 84.3492 18.4901 83.8692 18.4901 83.2612C18.4901 82.6525 18.322 82.174 17.9844 81.8228Z" fill="white"/>
<path d="M24.075 86.9935C23.5336 86.7561 23.1058 86.4313 22.7925 86.0172C22.4792 85.6045 22.3033 85.1417 22.2646 84.6281H24.673C24.7009 84.9042 24.8296 85.1267 25.0578 85.2983C25.2853 85.4686 25.5657 85.5544 25.8983 85.5544C26.2023 85.5544 26.4361 85.495 26.6035 85.3756C26.7695 85.2576 26.8524 85.1031 26.8524 84.9128C26.8524 84.6846 26.733 84.5165 26.4962 84.4071C26.2588 84.2984 25.8739 84.1761 25.3418 84.043C24.7724 83.9107 24.2975 83.7705 23.9184 83.6232C23.5378 83.4758 23.2102 83.2426 22.9349 82.925C22.6588 82.6075 22.5207 82.1776 22.5207 81.6361C22.5207 81.1805 22.6473 80.7642 22.8984 80.3901C23.1502 80.0146 23.52 79.7177 24.0092 79.4996C24.4985 79.2807 25.0807 79.1713 25.7552 79.1713C26.7523 79.1713 27.5384 79.418 28.112 79.9123C28.6871 80.4065 29.0176 81.061 29.102 81.8786H26.8517C26.8138 81.6025 26.6929 81.3843 26.4891 81.2227C26.2838 81.0617 26.0163 80.9816 25.683 80.9816C25.399 80.9816 25.1801 81.036 25.0278 81.1454C24.8754 81.2549 24.7996 81.4036 24.7996 81.5939C24.7996 81.8221 24.9212 81.993 25.1637 82.1061C25.4061 82.2205 25.7831 82.3342 26.2967 82.448C26.8853 82.5996 27.3646 82.7491 27.7358 82.8964C28.1056 83.0438 28.4318 83.2813 28.7122 83.6096C28.9918 83.9364 29.1363 84.3756 29.1456 84.9264C29.1456 85.3927 29.0154 85.8076 28.7536 86.1738C28.4926 86.5393 28.1171 86.8269 27.6292 87.035C27.14 87.2439 26.5721 87.3483 25.9262 87.3483C25.2331 87.349 24.6165 87.231 24.075 86.9935Z" fill="white"/>
<path d="M30.8206 78.0826C30.5502 77.8308 30.415 77.5204 30.415 77.1492C30.415 76.7701 30.5509 76.4532 30.8206 76.2021C31.0917 75.9504 31.4407 75.8245 31.8685 75.8245C32.2862 75.8245 32.6303 75.9511 32.9013 76.2021C33.1717 76.4539 33.3069 76.7701 33.3069 77.1492C33.3069 77.5204 33.171 77.8308 32.9013 78.0826C32.6303 78.3344 32.2855 78.4603 31.8685 78.4603C31.4407 78.4603 31.0917 78.3337 30.8206 78.0826ZM33.0787 79.2857V87.236H30.6425V79.2857H33.0787Z" fill="white"/>
<path d="M41.9188 80.1054C42.4739 80.7084 42.7521 81.5374 42.7521 82.591V87.2353H40.3302V82.9186C40.3302 82.3864 40.1921 81.9737 39.916 81.679C39.6414 81.3843 39.2702 81.237 38.8052 81.237C38.3389 81.237 37.9691 81.3843 37.6937 81.679C37.419 81.9737 37.281 82.3864 37.281 82.9186V87.2353H34.8447V79.285H37.281V80.34C37.5277 79.9888 37.8603 79.7106 38.2781 79.5067C38.6965 79.3028 39.1664 79.2006 39.6893 79.2006C40.6206 79.2013 41.3638 79.5024 41.9188 80.1054Z" fill="white"/>
<path d="M45.965 86.8505C45.3427 86.5186 44.8534 86.0437 44.4972 85.4257C44.141 84.8091 43.9629 84.0867 43.9629 83.2612C43.9629 82.4437 44.1439 81.7248 44.5044 81.1025C44.8649 80.481 45.3591 80.0031 45.9864 79.6705C46.6137 79.3379 47.3161 79.172 48.095 79.172C48.8733 79.172 49.5771 79.3379 50.203 79.6705C50.8303 80.0031 51.3238 80.481 51.685 81.1025C52.0455 81.7248 52.2265 82.4437 52.2265 83.2612C52.2265 84.0774 52.0434 84.7977 51.6779 85.4192C51.3124 86.0415 50.8131 86.5193 50.1822 86.8512C49.5506 87.1838 48.8454 87.3498 48.0664 87.3498C47.2868 87.349 46.5865 87.1838 45.965 86.8505ZM49.2559 84.7283C49.5843 84.3864 49.7473 83.8978 49.7473 83.262C49.7473 82.6261 49.5886 82.1361 49.2695 81.7942C48.952 81.4523 48.56 81.2821 48.095 81.2821C47.6194 81.2821 47.2253 81.4502 46.9127 81.7878C46.5987 82.1254 46.442 82.6168 46.442 83.2627C46.442 83.8993 46.5965 84.3871 46.9055 84.729C47.2138 85.0709 47.6015 85.2426 48.0664 85.2426C48.5314 85.2426 48.9276 85.0702 49.2559 84.7283Z" fill="white"/>
<path d="M65.2047 77.235V87.236H62.7685V83.1189H58.9782V87.236H56.542V77.235H58.9782V81.1526H62.7685V77.235H65.2047Z" fill="white"/>
<path d="M68.4747 86.8505C67.8524 86.5186 67.3632 86.0437 67.007 85.4257C66.6508 84.8091 66.4727 84.0867 66.4727 83.2612C66.4727 82.4437 66.6536 81.7248 67.0141 81.1025C67.3746 80.481 67.8689 80.0031 68.4962 79.6705C69.1235 79.3379 69.8259 79.172 70.6048 79.172C71.383 79.172 72.0869 79.3379 72.7127 79.6705C73.34 80.0031 73.8336 80.481 74.1948 81.1025C74.5553 81.7248 74.7363 82.4437 74.7363 83.2612C74.7363 84.0774 74.5531 84.7977 74.1876 85.4192C73.8221 86.0415 73.3229 86.5193 72.692 86.8512C72.0604 87.1838 71.3551 87.3498 70.5762 87.3498C69.7966 87.349 69.0963 87.1838 68.4747 86.8505ZM71.765 84.7283C72.0933 84.3864 72.2564 83.8978 72.2564 83.262C72.2564 82.6261 72.0976 82.1361 71.7786 81.7942C71.461 81.4523 71.069 81.2821 70.6041 81.2821C70.1284 81.2821 69.7343 81.4502 69.4217 81.7878C69.1077 82.1254 68.9511 82.6168 68.9511 83.2627C68.9511 83.8993 69.1056 84.3871 69.4146 84.729C69.7229 85.0709 70.1106 85.2426 70.5755 85.2426C71.0404 85.2418 71.4367 85.0702 71.765 84.7283Z" fill="white"/>
<path d="M80.4611 85.1696V87.2353H79.2215C78.3389 87.2353 77.6493 87.02 77.1565 86.5873C76.6623 86.1545 76.4155 85.45 76.4155 84.4715V81.3085H75.4463V79.2857H76.4155V77.348H78.8517V79.2857H80.4468V81.3085H78.8517V84.5001C78.8517 84.7376 78.9082 84.9085 79.022 85.0122C79.1364 85.1167 79.326 85.1689 79.592 85.1689H80.4611V85.1696Z" fill="white"/>
<path d="M89.2656 83.8442H83.753C83.7909 84.3392 83.9504 84.7161 84.2308 84.9772C84.5105 85.239 84.8545 85.3692 85.2637 85.3692C85.8709 85.3692 86.2929 85.1131 86.5311 84.6003H89.1247C88.9917 85.1217 88.7513 85.5931 88.4044 86.0101C88.0575 86.4285 87.6233 86.7554 87.1012 86.9936C86.5783 87.231 85.9939 87.3498 85.348 87.3498C84.5691 87.3498 83.8753 87.1838 83.268 86.8512C82.6608 86.5193 82.1851 86.0444 81.8432 85.4264C81.502 84.8098 81.3311 84.0874 81.3311 83.262C81.3311 82.4351 81.4991 81.7127 81.8368 81.0961C82.1744 80.4781 82.6472 80.0039 83.2544 79.6713C83.8617 79.3387 84.5598 79.1727 85.348 79.1727C86.1177 79.1727 86.8022 79.3337 87.4002 79.6577C87.9982 79.9803 88.4659 80.4416 88.8028 81.0396C89.1405 81.6376 89.3085 82.3357 89.3085 83.1332C89.3085 83.3614 89.295 83.5989 89.2656 83.8442ZM86.8158 82.4916C86.8158 82.0739 86.6735 81.7413 86.3881 81.4945C86.1041 81.2477 85.7472 81.1233 85.3202 81.1233C84.911 81.1233 84.5663 81.2427 84.2873 81.4802C84.0069 81.7177 83.8338 82.0539 83.7666 82.4909H86.8158V82.4916Z" fill="white"/>
<path d="M93.0271 76.6935V87.236H90.5908V76.6935H93.0271Z" fill="white"/>
<path d="M96.1756 86.9935C95.6341 86.7561 95.2064 86.4313 94.8931 86.0172C94.5798 85.6045 94.4039 85.1417 94.3652 84.6281H96.7736C96.8015 84.9042 96.9302 85.1267 97.1584 85.2983C97.3858 85.4686 97.6662 85.5544 97.9988 85.5544C98.3028 85.5544 98.5367 85.495 98.7041 85.3756C98.87 85.2576 98.953 85.1031 98.953 84.9128C98.953 84.6846 98.8336 84.5165 98.5968 84.4071C98.3593 84.2984 97.9745 84.1761 97.4424 84.043C96.873 83.9107 96.3981 83.7705 96.019 83.6232C95.6384 83.4758 95.3108 83.2426 95.0354 82.925C94.7594 82.6075 94.6213 82.1776 94.6213 81.6361C94.6213 81.1805 94.7479 80.7642 94.999 80.3901C95.2507 80.0146 95.6205 79.7177 96.1098 79.4996C96.599 79.2807 97.1813 79.1713 97.8558 79.1713C98.8529 79.1713 99.639 79.418 100.213 79.9123C100.788 80.4065 101.118 81.061 101.203 81.8786H98.9523C98.9144 81.6025 98.7935 81.3843 98.5897 81.2227C98.3844 81.0617 98.1169 80.9816 97.7835 80.9816C97.4996 80.9816 97.2807 81.036 97.1284 81.1454C96.976 81.2549 96.9002 81.4036 96.9002 81.5939C96.9002 81.8221 97.0218 81.993 97.2642 82.1061C97.5067 82.2205 97.8837 82.3342 98.3973 82.448C98.9859 82.5996 99.4652 82.7491 99.8364 82.8964C100.206 83.0438 100.532 83.2813 100.813 83.6096C101.092 83.9364 101.237 84.3756 101.246 84.9264C101.246 85.3927 101.116 85.8076 100.854 86.1738C100.593 86.5393 100.218 86.8269 99.7298 87.035C99.2406 87.2439 98.6726 87.3483 98.0267 87.3483C97.3336 87.349 96.7171 87.231 96.1756 86.9935Z" fill="white"/>
<path d="M26.4522 91.3409L25.0524 96.2821H24.5009L23.257 92.0691L21.9845 96.2821L21.4474 96.2892L20.0762 91.3409H20.6062L21.737 95.6741L23.0024 91.3409H23.5539L24.7841 95.6741L25.9221 91.3409H26.4522Z" fill="white"/>
<path d="M31.4536 96.0947C31.1639 95.9323 30.935 95.7013 30.7677 95.4023C30.6003 95.1033 30.5166 94.7536 30.5166 94.3523C30.5166 93.9517 30.6017 93.602 30.7712 93.303C30.9408 93.004 31.1718 92.773 31.4636 92.6099C31.7562 92.4475 32.0831 92.366 32.4464 92.366C32.8091 92.366 33.1381 92.4475 33.4328 92.6099C33.7275 92.7722 33.9585 93.0033 34.1252 93.303C34.2926 93.602 34.3762 93.9525 34.3762 94.3523C34.3762 94.7478 34.2918 95.0969 34.1216 95.3987C33.9521 95.7006 33.7189 95.9323 33.4221 96.0947C33.1252 96.2571 32.7955 96.3386 32.4321 96.3386C32.0695 96.3386 31.7433 96.2578 31.4536 96.0947ZM33.1388 95.7342C33.3555 95.6191 33.5308 95.4445 33.6653 95.2113C33.7997 94.9782 33.867 94.6921 33.867 94.3523C33.867 94.0133 33.8012 93.7264 33.6688 93.4932C33.5365 93.2601 33.3627 93.0855 33.146 92.9704C32.9292 92.8552 32.6932 92.7973 32.4393 92.7973C32.1853 92.7973 31.9493 92.8552 31.7326 92.9704C31.5158 93.0863 31.3427 93.2601 31.2133 93.4932C31.0838 93.7264 31.0187 94.0125 31.0187 94.3523C31.0187 94.6913 31.0831 94.9782 31.2133 95.2113C31.3427 95.4445 31.5151 95.6191 31.729 95.7342C31.9436 95.8501 32.1782 95.9073 32.4321 95.9073C32.686 95.9073 32.9221 95.8501 33.1388 95.7342Z" fill="white"/>
<path d="M39.8087 92.5498C40.0326 92.4182 40.3072 92.3517 40.632 92.3517V92.8674H40.4975C40.1391 92.8674 39.8516 92.964 39.6349 93.1571C39.4181 93.3502 39.3094 93.6728 39.3094 94.1256V96.2814H38.8145V92.4218H39.3094V93.1077C39.4181 92.8681 39.5848 92.6821 39.8087 92.5498Z" fill="white"/>
<path d="M45.4032 91.0513V96.2821H44.9082V91.0513H45.4032Z" fill="white"/>
<path d="M50.0756 93.303C50.2358 93.004 50.4561 92.7729 50.7365 92.6099C51.0169 92.4475 51.3337 92.366 51.6871 92.366C52.0261 92.366 52.333 92.4482 52.6062 92.6134C52.8794 92.7787 53.0797 92.9925 53.207 93.2565V91.0513H53.702V96.2821H53.207V95.4195C53.089 95.6884 52.8959 95.9087 52.6277 96.0804C52.3587 96.2528 52.0433 96.3386 51.6806 96.3386C51.3273 96.3386 51.0104 96.2564 50.73 96.0911C50.4497 95.9259 50.2308 95.6927 50.0727 95.3916C49.9146 95.0897 49.8359 94.7414 49.8359 94.3451C49.8352 93.9496 49.9153 93.602 50.0756 93.303ZM53.0161 93.5326C52.8887 93.2972 52.7157 93.1156 52.4968 92.9882C52.2779 92.8609 52.0361 92.7973 51.7722 92.7973C51.499 92.7973 51.2536 92.8588 51.0369 92.9811C50.8202 93.1034 50.6492 93.2815 50.524 93.5147C50.3989 93.7479 50.3366 94.0247 50.3366 94.3451C50.3366 94.6606 50.3989 94.9381 50.524 95.1756C50.6492 95.4138 50.8195 95.5947 51.0369 95.7199C51.2536 95.8451 51.499 95.9073 51.7722 95.9073C52.0361 95.9073 52.2779 95.8436 52.4968 95.7163C52.7157 95.589 52.8887 95.408 53.0161 95.172C53.1434 94.9367 53.207 94.6627 53.207 94.3523C53.207 94.0411 53.1434 93.7679 53.0161 93.5326Z" fill="white"/>
<path d="M63.4573 92.4225L62.2485 96.2821H61.7535L60.6863 93.0448L59.6191 96.2821H59.117L57.9082 92.4225H58.4103L59.3717 95.78L60.4532 92.4225H60.9481L62.0153 95.7872L62.9695 92.4225H63.4573Z" fill="white"/>
<path d="M67.6557 91.5885C67.5849 91.5177 67.5498 91.4304 67.5498 91.3267C67.5498 91.223 67.5849 91.1371 67.6557 91.0685C67.7265 91.0005 67.8109 90.9662 67.9103 90.9662C68.0097 90.9662 68.0941 91.0005 68.1649 91.0685C68.2358 91.1371 68.2708 91.223 68.2708 91.3267C68.2708 91.4304 68.2358 91.5177 68.1649 91.5885C68.0941 91.6593 68.0097 91.6943 67.9103 91.6943C67.8109 91.6943 67.7265 91.6593 67.6557 91.5885ZM68.1578 92.4225V96.2821H67.6628V92.4225H68.1578Z" fill="white"/>
<path d="M72.8304 93.303C72.9907 93.004 73.211 92.7729 73.4914 92.6099C73.7717 92.4475 74.0886 92.366 74.442 92.366C74.781 92.366 75.0879 92.4482 75.3611 92.6134C75.6343 92.7787 75.8346 92.9925 75.9619 93.2565V91.0513H76.4569V96.2821H75.9619V95.4195C75.8439 95.6884 75.6508 95.9087 75.3826 96.0804C75.1136 96.2528 74.7982 96.3386 74.4355 96.3386C74.0822 96.3386 73.7653 96.2564 73.4849 96.0911C73.2045 95.9259 72.9857 95.6927 72.8276 95.3916C72.6695 95.0897 72.5908 94.7414 72.5908 94.3451C72.5901 93.9496 72.6702 93.602 72.8304 93.303ZM75.7709 93.5326C75.6436 93.2972 75.4705 93.1156 75.2517 92.9882C75.0328 92.8609 74.791 92.7973 74.5271 92.7973C74.2539 92.7973 74.0085 92.8588 73.7918 92.9811C73.575 93.1034 73.4041 93.2815 73.2789 93.5147C73.1537 93.7479 73.0915 94.0247 73.0915 94.3451C73.0915 94.6606 73.1537 94.9381 73.2789 95.1756C73.4041 95.4138 73.5743 95.5947 73.7918 95.7199C74.0085 95.8451 74.2539 95.9073 74.5271 95.9073C74.791 95.9073 75.0328 95.8436 75.2517 95.7163C75.4705 95.589 75.6436 95.408 75.7709 95.172C75.8983 94.9367 75.9619 94.6627 75.9619 94.3523C75.9619 94.0411 75.8983 93.7679 75.7709 93.5326Z" fill="white"/>
<path d="M84.599 94.5433H81.3967C81.411 94.8358 81.4811 95.0855 81.6084 95.2929C81.7357 95.5003 81.9031 95.657 82.1105 95.7628C82.3179 95.8687 82.544 95.9216 82.7893 95.9216C83.1097 95.9216 83.3794 95.8437 83.599 95.6884C83.8179 95.5332 83.9631 95.3229 84.0339 95.059H84.5568C84.4623 95.4359 84.2606 95.7435 83.9523 95.9817C83.6433 96.2199 83.2564 96.3386 82.7893 96.3386C82.4267 96.3386 82.1012 96.2571 81.8137 96.0947C81.5261 95.9323 81.3008 95.7013 81.1384 95.4023C80.9761 95.1033 80.8945 94.7536 80.8945 94.3523C80.8945 93.9517 80.9746 93.6005 81.1349 93.2994C81.2951 92.9976 81.519 92.7672 81.8065 92.6063C82.0941 92.4461 82.4216 92.366 82.7893 92.366C83.157 92.366 83.4788 92.4461 83.7542 92.6063C84.0296 92.7665 84.242 92.9825 84.3901 93.2529C84.5389 93.524 84.6125 93.8244 84.6125 94.1542C84.6133 94.3244 84.6083 94.4539 84.599 94.5433ZM83.938 93.4053C83.8179 93.2028 83.6541 93.0498 83.4466 92.9461C83.2392 92.8423 83.0132 92.7908 82.7678 92.7908C82.4002 92.7908 82.0869 92.9089 81.828 93.1442C81.569 93.3795 81.4253 93.7121 81.3967 94.1406H84.1111C84.1161 93.853 84.0582 93.6077 83.938 93.4053Z" fill="white"/>
</svg>
