<svg width="17" height="17" viewBox="0 0 17 17" fill="none" xmlns="http://www.w3.org/2000/svg">
<path d="M13.4587 2.83317H12.042V2.12484C12.042 1.93698 11.9674 1.75681 11.8345 1.62397C11.7017 1.49113 11.5215 1.4165 11.3337 1.4165C11.1458 1.4165 10.9656 1.49113 10.8328 1.62397C10.7 1.75681 10.6253 1.93698 10.6253 2.12484V2.83317H6.37533V2.12484C6.37533 1.93698 6.3007 1.75681 6.16786 1.62397C6.03502 1.49113 5.85485 1.4165 5.66699 1.4165C5.47913 1.4165 5.29896 1.49113 5.16613 1.62397C5.03329 1.75681 4.95866 1.93698 4.95866 2.12484V2.83317H3.54199C2.97841 2.83317 2.43791 3.05705 2.03939 3.45557C1.64088 3.85408 1.41699 4.39459 1.41699 4.95817V13.4582C1.41699 14.0218 1.64088 14.5623 2.03939 14.9608C2.43791 15.3593 2.97841 15.5832 3.54199 15.5832H13.4587C14.0222 15.5832 14.5627 15.3593 14.9613 14.9608C15.3598 14.5623 15.5837 14.0218 15.5837 13.4582V4.95817C15.5837 4.39459 15.3598 3.85408 14.9613 3.45557C14.5627 3.05705 14.0222 2.83317 13.4587 2.83317ZM14.167 13.4582C14.167 13.646 14.0924 13.8262 13.9595 13.959C13.8267 14.0919 13.6465 14.1665 13.4587 14.1665H3.54199C3.35413 14.1665 3.17396 14.0919 3.04113 13.959C2.90829 13.8262 2.83366 13.646 2.83366 13.4582V8.49984H14.167V13.4582ZM14.167 7.08317H2.83366V4.95817C2.83366 4.77031 2.90829 4.59014 3.04113 4.4573C3.17396 4.32447 3.35413 4.24984 3.54199 4.24984H4.95866V4.95817C4.95866 5.14603 5.03329 5.3262 5.16613 5.45904C5.29896 5.59188 5.47913 5.6665 5.66699 5.6665C5.85485 5.6665 6.03502 5.59188 6.16786 5.45904C6.3007 5.3262 6.37533 5.14603 6.37533 4.95817V4.24984H10.6253V4.95817C10.6253 5.14603 10.7 5.3262 10.8328 5.45904C10.9656 5.59188 11.1458 5.6665 11.3337 5.6665C11.5215 5.6665 11.7017 5.59188 11.8345 5.45904C11.9674 5.3262 12.042 5.14603 12.042 4.95817V4.24984H13.4587C13.6465 4.24984 13.8267 4.32447 13.9595 4.4573C14.0924 4.59014 14.167 4.77031 14.167 4.95817V7.08317Z" fill="#FC115C"/>
</svg>
