<svg width="22" height="22" viewBox="0 0 22 22" fill="none" xmlns="http://www.w3.org/2000/svg">
<path d="M1.32584 15.0918L1.32593 15.092C1.87907 16.3747 2.62759 17.4855 3.57105 18.4289C4.51451 19.3724 5.6253 20.1209 6.90799 20.6741L6.9082 20.6742C8.18121 21.2238 9.54345 21.5 11 21.5C12.4565 21.5 13.8188 21.2238 15.0918 20.6742L15.092 20.6741C16.3747 20.1209 17.4855 19.3724 18.4289 18.4289C19.3724 17.4855 20.1209 16.3747 20.6741 15.092L20.6742 15.0918C21.2238 13.8188 21.5 12.4565 21.5 11C21.5 9.54345 21.2238 8.18121 20.6742 6.9082L20.6741 6.90799C20.1209 5.6253 19.3724 4.51451 18.4289 3.57105C17.4855 2.6276 16.3747 1.8787 15.092 1.32483C13.819 0.775845 12.4566 0.5 11 0.5C9.54345 0.5 8.1812 0.775814 6.9082 1.32474L1.32584 15.0918ZM1.32584 15.0918C0.776177 13.8188 0.5 12.4565 0.5 11C0.5 9.54345 0.776177 8.18121 1.32584 6.9082L1.32593 6.90799M1.32584 15.0918L1.32593 6.90799M1.32593 6.90799C1.87907 5.6253 2.62759 4.51452 3.57105 3.57105M1.32593 6.90799L3.57105 3.57105M3.57105 3.57105C4.51451 2.6276 5.6253 1.8787 6.90799 1.32483L3.57105 3.57105ZM10.6464 15.7536L11 16.1071L11.3536 15.7536L15.7536 11.3536L16.1071 11L15.7536 10.6464L11.3536 6.24645L11 5.89289L10.6464 6.24645L9.10645 7.78645L8.75289 8.14L9.10645 8.49355L10.0129 9.4H6.6H6.1V9.9V12.1V12.6H6.6H10.0129L9.10645 13.5064L8.75289 13.86L9.10645 14.2136L10.6464 15.7536Z" fill="white" stroke="url(#paint0_linear_1_183)"/>
<defs>
<linearGradient id="paint0_linear_1_183" x1="11" y1="0" x2="11" y2="22" gradientUnits="userSpaceOnUse">
<stop stop-color="#DEDEDE"/>
<stop offset="1" stop-color="#F1F1F1" stop-opacity="0"/>
</linearGradient>
</defs>
</svg>
