<svg width="30" height="30" viewBox="0 0 30 30" fill="none" xmlns="http://www.w3.org/2000/svg">
<path d="M14.6464 21.3536L15 21.7071L15.3536 21.3536L21.3536 15.3536L21.7071 15L21.3536 14.6464L15.3536 8.64645L15 8.29289L14.6464 8.64645L12.5464 10.7464L12.1929 11.1L12.5464 11.4536L14.0929 13H9H8.5V13.5V16.5L8.5 17H9L14.0929 17L12.5464 18.5464L12.1929 18.9L12.5464 19.2536L14.6464 21.3536ZM1.64113 20.652L1.64104 20.6518C0.881244 18.8921 0.5 17.0099 0.5 15C0.5 12.9901 0.881244 11.1079 1.64104 9.3482L1.64113 9.34799C2.40413 7.57863 3.43759 6.04452 4.74105 4.74105C6.04456 3.43754 7.57876 2.40355 9.3482 1.63954C11.1079 0.880748 12.9901 0.5 15 0.5C17.01 0.5 18.8923 0.880778 20.652 1.63963C22.4214 2.40363 23.9555 3.4376 25.2589 4.74105C26.5624 6.04451 27.5959 7.57863 28.3589 9.34799L28.359 9.3482C29.1188 11.1079 29.5 12.9901 29.5 15C29.5 17.0099 29.1188 18.8921 28.359 20.6518L28.3589 20.652C27.5959 22.4214 26.5624 23.9555 25.2589 25.2589C23.9555 26.5624 22.4214 27.5959 20.652 28.3589L20.6518 28.359C18.8921 29.1188 17.0099 29.5 15 29.5C12.9901 29.5 11.1079 29.1188 9.3482 28.359L9.34799 28.3589C7.57863 27.5959 6.04451 26.5624 4.74105 25.2589C3.43759 23.9555 2.40413 22.4214 1.64113 20.652Z" fill="white" stroke="url(#paint0_linear_1_2620)"/>
<defs>
<linearGradient id="paint0_linear_1_2620" x1="15" y1="0" x2="15" y2="30" gradientUnits="userSpaceOnUse">
<stop stop-color="#DEDEDE"/>
<stop offset="1" stop-color="#F1F1F1" stop-opacity="0"/>
</linearGradient>
</defs>
</svg>
