<svg width="30" height="30" viewBox="0 0 30 30" fill="none" xmlns="http://www.w3.org/2000/svg">
<path d="M8.64645 14.6464L8.29289 15L8.64645 15.3536L14.6464 21.3536L15 21.7071L15.3536 21.3536L21.3536 15.3536L21.7071 15L21.3536 14.6464L19.2536 12.5464L18.9 12.1929L18.5464 12.5464L17 14.0929L17 9L17 8.5L16.5 8.5L13.5 8.5L13 8.5L13 9L13 14.0929L11.4536 12.5464L11.1 12.1929L10.7464 12.5464L8.64645 14.6464ZM9.34799 1.64113L9.34821 1.64104C11.1079 0.881243 12.9901 0.499999 15 0.499999C17.0099 0.499999 18.8921 0.881243 20.6518 1.64104L20.652 1.64113C22.4214 2.40413 23.9555 3.43759 25.2589 4.74105C26.5625 6.04456 27.5964 7.57876 28.3605 9.3482C29.1193 11.1079 29.5 12.9901 29.5 15C29.5 17.01 29.1192 18.8923 28.3604 20.652C27.5964 22.4214 26.5624 23.9555 25.2589 25.2589C23.9555 26.5624 22.4214 27.5959 20.652 28.3589L20.6518 28.359C18.8921 29.1188 17.0099 29.5 15 29.5C12.9901 29.5 11.1079 29.1188 9.3482 28.359L9.34799 28.3589C7.57863 27.5959 6.04451 26.5624 4.74105 25.2589C3.43759 23.9555 2.40413 22.4214 1.64113 20.652L1.64104 20.6518C0.881244 18.8921 0.499999 17.0099 0.499999 15C0.499999 12.9901 0.881244 11.1079 1.64104 9.3482L1.64113 9.34799C2.40413 7.57863 3.43759 6.04451 4.74105 4.74105C6.04451 3.43759 7.57863 2.40413 9.34799 1.64113Z" fill="white" stroke="url(#paint0_linear_1_61)"/>
<defs>
<linearGradient id="paint0_linear_1_61" x1="30" y1="15" x2="-6.55671e-07" y2="15" gradientUnits="userSpaceOnUse">
<stop stop-color="#DEDEDE"/>
<stop offset="1" stop-color="#F1F1F1" stop-opacity="0"/>
</linearGradient>
</defs>
</svg>
